<?xml version="1.0" encoding="UTF-8" standalone="no"?>
<!-- Created with Digital by H.Neemann -->
<!-- created: Tue Oct 03 11:47:34 BRT 2023 -->

<svg
   xmlns:svg="http://www.w3.org/2000/svg"
   xmlns="http://www.w3.org/2000/svg"
   width="209.1mm"
   height="101.1mm"
   viewBox="187 43 1394 674">
<g stroke-linecap="square">
<path d="M 860,180 L 870,180 L 880,180" stroke="#000000" stroke-width="4.0" fill="none"/>
<path d="M 880,160 L 870,160" stroke="#000000" stroke-width="4.0" fill="none"/>
<path d="M 880,140 L 870,140" stroke="#000000" stroke-width="4.0" fill="none"/>
<path d="M 1120,200 L 1130,200 L 1140,200" stroke="#000000" stroke-width="4.0" fill="none"/>
<path d="M 1120,180 L 1130,180" stroke="#000000" stroke-width="4.0" fill="none"/>
<path d="M 1120,160 L 1130,160" stroke="#000000" stroke-width="4.0" fill="none"/>
<path d="M 1120,140 L 1130,140" stroke="#000000" stroke-width="4.0" fill="none"/>
<path d="M 880,280 L 890,280 L 900,280" stroke="#000000" stroke-width="4.0" fill="none"/>
<path d="M 900,300 L 890,300" stroke="#000000" stroke-width="4.0" fill="none"/>
<path d="M 940,280 L 950,280 L 960,280" stroke="#000000" stroke-width="4.0" fill="none"/>
<path d="M 940,300 L 950,300" stroke="#000000" stroke-width="4.0" fill="none"/>
<path d="M 880,420 L 890,420 L 900,420" stroke="#000000" stroke-width="4.0" fill="none"/>
<path d="M 900,440 L 890,440" stroke="#000000" stroke-width="4.0" fill="none"/>
<path d="M 940,420 L 950,420 L 960,420" stroke="#000000" stroke-width="4.0" fill="none"/>
<path d="M 940,440 L 950,440" stroke="#000000" stroke-width="4.0" fill="none"/>
<path d="M 1120,320 L 1130,320 L 1140,320" stroke="#000000" stroke-width="4.0" fill="none"/>
<path d="M 1140,340 L 1130,340" stroke="#000000" stroke-width="4.0" fill="none"/>
<path d="M 1180,320 L 1190,320 L 1200,320" stroke="#000000" stroke-width="4.0" fill="none"/>
<path d="M 1180,340 L 1190,340" stroke="#000000" stroke-width="4.0" fill="none"/>
<path d="M 1260,541 L 1211,541" stroke="#000000" stroke-width="4.0" fill="none"/>
<path d="M 1100,541 L 1149,541" stroke="#000000" stroke-width="4.0" fill="none"/>
<path d="M 1240,460 L 1240,470 L 1240,480" stroke="#000000" stroke-width="4.0" fill="none"/>
<path d="M 1220,480 L 1220,470" stroke="#000000" stroke-width="4.0" fill="none"/>
<path d="M 1200,480 L 1200,470" stroke="#000000" stroke-width="4.0" fill="none"/>
<path d="M 1180,480 L 1180,470" stroke="#000000" stroke-width="4.0" fill="none"/>
<path d="M 1160,480 L 1160,470" stroke="#000000" stroke-width="4.0" fill="none"/>
<path d="M 1140,480 L 1140,470" stroke="#000000" stroke-width="4.0" fill="none"/>
<path d="M 1120,480 L 1120,470" stroke="#000000" stroke-width="4.0" fill="none"/>
<path d="M 1100,480 L 1100,470" stroke="#000000" stroke-width="4.0" fill="none"/>
<path d="M 740,320 L 800,320 L 800,300 L 820,300" stroke="#0000b2" stroke-width="4.0" fill="none"/>
<path d="M 1200,320 L 1240,320 L 1300,320" stroke="#0000b2" stroke-width="4.0" fill="none"/>
<path d="M 1140,320 L 1180,320" stroke="#0000b2" stroke-width="4.0" fill="none"/>
<path d="M 1100,320 L 1120,320" stroke="#0000b2" stroke-width="4.0" fill="none"/>
<path d="M 1180,620 L 1180,640 L 1220,640" stroke="#0000b2" stroke-width="4.0" fill="none"/>
<path d="M 520,640 L 540,640 L 540,500" stroke="#0000b2" stroke-width="4.0" fill="none"/>
<path d="M 1260,640 L 1280,640" stroke="#0000b2" stroke-width="4.0" fill="none"/>
<path d="M 1000,620 L 1000,640 L 1020,640 L 1024,640" stroke="#0000b2" stroke-width="4.0" fill="none"/>
<path d="M 760,260 L 820,260" stroke="#0000b2" stroke-width="4.0" fill="none"/>
<path d="M 300,260 L 320,260 L 320,240 L 440,240" stroke="#0000b2" stroke-width="4.0" fill="none"/>
<path d="M 1020,260 L 1040,260" stroke="#0000b2" stroke-width="4.0" fill="none"/>
<path d="M 620,440 L 620,520 L 660,520 L 674,520" stroke="#0000b2" stroke-width="4.0" fill="none"/>
<path d="M 300,520 L 480,520 L 480,480 L 520,480" stroke="#0000b2" stroke-width="4.0" fill="none"/>
<path d="M 1200,480 L 1200,520 L 1220,520 L 1220,540" stroke="#0000b2" stroke-width="4.0" fill="none"/>
<path d="M 400,700 L 400,200 L 440,200" stroke="#0000b2" stroke-width="4.0" fill="none"/>
<path d="M 1140,200 L 1440,200" stroke="#0000b2" stroke-width="4.0" fill="none"/>
<path d="M 740,460 L 760,460 L 760,400 L 820,400" stroke="#0000b2" stroke-width="4.0" fill="none"/>
<path d="M 300,460 L 520,460" stroke="#0000b2" stroke-width="4.0" fill="none"/>
<path d="M 560,460 L 600,460 L 600,400 L 660,400" stroke="#0000b2" stroke-width="4.0" fill="none"/>
<path d="M 940,520 L 940,460 L 1020,460 L 1020,420 L 1140,420 L 1160,420" stroke="#0000b2" stroke-width="4.0" fill="none"/>
<path d="M 520,140 L 620,140 L 620,80 L 1100,80 L 1100,140 L 1120,140" stroke="#0000b2" stroke-width="4.0" fill="none"/>
<path d="M 300,140 L 320,140 L 320,160 L 440,160" stroke="#0000b2" stroke-width="4.0" fill="none"/>
<path d="M 880,140 L 900,140 L 900,100 L 1020,100" stroke="#0000b2" stroke-width="4.0" fill="none"/>
<path d="M 1000,140 L 1020,140" stroke="#0000b2" stroke-width="4.0" fill="none"/>
<path d="M 1140,420 L 1140,340 L 1180,340" stroke="#0000b2" stroke-width="4.0" fill="none"/>
<path d="M 1100,340 L 1120,340 L 1120,380 L 1160,380" stroke="#0000b2" stroke-width="4.0" fill="none"/>
<path d="M 1360,340 L 1440,340" stroke="#0000b2" stroke-width="4.0" fill="none"/>
<path d="M 820,340 L 840,340 L 840,320" stroke="#0000b2" stroke-width="4.0" fill="none"/>
<path d="M 800,660 L 840,660 L 840,460" stroke="#0000b2" stroke-width="4.0" fill="none"/>
<path d="M 1100,660 L 1120,660" stroke="#0000b2" stroke-width="4.0" fill="none"/>
<path d="M 860,280 L 880,280" stroke="#0000b2" stroke-width="4.0" fill="none"/>
<path d="M 900,280 L 940,280" stroke="#0000b2" stroke-width="4.0" fill="none"/>
<path d="M 960,280 L 1000,280 L 1000,320 L 1040,320" stroke="#0000b2" stroke-width="4.0" fill="none"/>
<path d="M 1060,260 L 1060,280 L 1120,280" stroke="#0000b2" stroke-width="4.0" fill="none"/>
<path d="M 300,600 L 500,600 L 500,440 L 520,440" stroke="#0000b2" stroke-width="4.0" fill="none"/>
<path d="M 740,540 L 780,540 L 780,420 L 820,420" stroke="#0000b2" stroke-width="4.0" fill="none"/>
<path d="M 1180,480 L 1180,540 L 1200,540 L 1200,544" stroke="#0000b2" stroke-width="4.0" fill="none"/>
<path d="M 300,220 L 440,220" stroke="#0000b2" stroke-width="4.0" fill="none"/>
<path d="M 600,460 L 600,480 L 660,480 L 664,480" stroke="#0000b2" stroke-width="4.0" fill="none"/>
<path d="M 1240,480 L 1260,480 L 1260,540" stroke="#0000b2" stroke-width="4.0" fill="none"/>
<path d="M 920,540 L 920,480 L 980,480 L 1000,480 L 1000,520" stroke="#0000b2" stroke-width="4.0" fill="none"/>
<path d="M 520,160 L 540,160 L 540,180 L 860,180" stroke="#0000b2" stroke-width="4.0" fill="none"/>
<path d="M 880,160 L 920,160 L 920,200 L 1080,200 L 1080,180 L 1120,180" stroke="#0000b2" stroke-width="4.0" fill="none"/>
<path d="M 900,420 L 940,420" stroke="#0000b2" stroke-width="4.0" fill="none"/>
<path d="M 860,420 L 880,420" stroke="#0000b2" stroke-width="4.0" fill="none"/>
<path d="M 960,420 L 1000,420 L 1000,340 L 1040,340" stroke="#0000b2" stroke-width="4.0" fill="none"/>
<path d="M 620,260 L 620,360 L 660,360" stroke="#0000b2" stroke-width="4.0" fill="none"/>
<path d="M 1280,360 L 1300,360" stroke="#0000b2" stroke-width="4.0" fill="none"/>
<path d="M 980,360 L 1040,360" stroke="#0000b2" stroke-width="4.0" fill="none"/>
<path d="M 920,620 L 920,680 L 1020,680 L 1024,680" stroke="#0000b2" stroke-width="4.0" fill="none"/>
<path d="M 600,560 L 600,620 L 800,620 L 800,440 L 820,440" stroke="#0000b2" stroke-width="4.0" fill="none"/>
<path d="M 700,300 L 780,300 L 780,280 L 820,280" stroke="#0000b2" stroke-width="4.0" fill="none"/>
<path d="M 600,480 L 600,560 L 660,560 L 674,560" stroke="#0000b2" stroke-width="4.0" fill="none"/>
<path d="M 1080,240 L 1100,240 L 1100,200 L 1120,200" stroke="#0000b2" stroke-width="4.0" fill="none"/>
<path d="M 300,180 L 440,180" stroke="#0000b2" stroke-width="4.0" fill="none"/>
<path d="M 880,180 L 900,180 L 900,220 L 1040,220" stroke="#0000b2" stroke-width="4.0" fill="none"/>
<path d="M 1020,180 L 1040,180 L 1040,140" stroke="#0000b2" stroke-width="4.0" fill="none"/>
<path d="M 1220,480 L 1220,500 L 1240,500 L 1240,540" stroke="#0000b2" stroke-width="4.0" fill="none"/>
<path d="M 620,360 L 620,440 L 660,440 L 664,440" stroke="#0000b2" stroke-width="4.0" fill="none"/>
<path d="M 1060,120 L 1080,120 L 1080,160 L 1120,160" stroke="#0000b2" stroke-width="4.0" fill="none"/>
<path d="M 740,380 L 820,380" stroke="#0000b2" stroke-width="4.0" fill="none"/>
<path d="M 300,700 L 400,700 L 1400,700 L 1400,420 L 1260,420 L 1260,340 L 1300,340" stroke="#0000b2" stroke-width="4.0" fill="none"/>
<path d="M 980,520 L 980,500 L 900,500 L 900,440 L 940,440" stroke="#0000b2" stroke-width="4.0" fill="none"/>
<path d="M 980,480 L 980,400 L 900,400 L 900,300 L 940,300" stroke="#0000b2" stroke-width="4.0" fill="none"/>
<path d="M 900,500 L 900,540" stroke="#0000b2" stroke-width="4.0" fill="none"/>
<path d="M 1160,480 L 1160,540 L 1160,544" stroke="#0000b2" stroke-width="4.0" fill="none"/>
<path d="M 1100,480 L 1100,540" stroke="#0000b2" stroke-width="4.0" fill="none"/>
<path d="M 440,140 L 400,140 L 400,60 L 1240,60 L 1300,60" stroke="#0000b2" stroke-width="4.0" fill="none"/>
<path d="M 1240,60 L 1240,320 L 1240,460" stroke="#0000b2" stroke-width="4.0" fill="none"/>
<path d="M 1120,480 L 1120,540" stroke="#0000b2" stroke-width="4.0" fill="none"/>
<path d="M 720,260 L 620,260 L 620,240 L 820,240" stroke="#0000b2" stroke-width="4.0" fill="none"/>
<path d="M 620,140 L 620,240" stroke="#0000b2" stroke-width="4.0" fill="none"/>
<path d="M 520,420 L 500,420 L 500,380 L 540,380 L 540,180" stroke="#0000b2" stroke-width="4.0" fill="none"/>
<path d="M 1140,480 L 1140,540" stroke="#0000b2" stroke-width="4.0" fill="none"/>
<path d="M 1020,460 L 1020,540" stroke="#0000b2" stroke-width="4.0" fill="none"/>
<g>
<circle cx="1240.0" cy="320.0" r="4.0" stroke="#0000b2" stroke-width="4.0" fill="#0000b2" />
<circle cx="620.0" cy="260.0" r="4.0" stroke="#0000b2" stroke-width="4.0" fill="#0000b2" />
<circle cx="600.0" cy="460.0" r="4.0" stroke="#0000b2" stroke-width="4.0" fill="#0000b2" />
<circle cx="1020.0" cy="460.0" r="4.0" stroke="#0000b2" stroke-width="4.0" fill="#0000b2" />
<circle cx="620.0" cy="140.0" r="4.0" stroke="#0000b2" stroke-width="4.0" fill="#0000b2" />
<circle cx="600.0" cy="480.0" r="4.0" stroke="#0000b2" stroke-width="4.0" fill="#0000b2" />
<circle cx="980.0" cy="480.0" r="4.0" stroke="#0000b2" stroke-width="4.0" fill="#0000b2" />
<circle cx="1140.0" cy="420.0" r="4.0" stroke="#0000b2" stroke-width="4.0" fill="#0000b2" />
<circle cx="620.0" cy="360.0" r="4.0" stroke="#0000b2" stroke-width="4.0" fill="#0000b2" />
<circle cx="600.0" cy="560.0" r="4.0" stroke="#0000b2" stroke-width="4.0" fill="#0000b2" />
<circle cx="620.0" cy="240.0" r="4.0" stroke="#0000b2" stroke-width="4.0" fill="#0000b2" />
<circle cx="540.0" cy="180.0" r="4.0" stroke="#0000b2" stroke-width="4.0" fill="#0000b2" />
<circle cx="900.0" cy="500.0" r="4.0" stroke="#0000b2" stroke-width="4.0" fill="#0000b2" />
<circle cx="620.0" cy="440.0" r="4.0" stroke="#0000b2" stroke-width="4.0" fill="#0000b2" />
<circle cx="1240.0" cy="60.0" r="4.0" stroke="#0000b2" stroke-width="4.0" fill="#0000b2" />
<circle cx="400.0" cy="700.0" r="4.0" stroke="#0000b2" stroke-width="4.0" fill="#0000b2" />
</g>
<g>
<path d="M 269,685 L 299,685 L 299,715 L 269,715 Z" stroke="#000000" stroke-width="4.0" fill="none"/>
<circle cx="284.0" cy="700.0" r="9.0" stroke="#000000" stroke-width="4.0" fill="none" />
<text text-anchor="end" x="255.0" y="709.0" fill="#000000" style="font-size:24px"><tspan style="font-style:italic;">clock</tspan></text>
<circle cx="300.0" cy="700.0" r="2.0" stroke="#b20000" stroke-width="4.0" fill="#b20000" />
</g>
<g>
<path d="M 441,130 L 519,130 L 519,250 L 441,250 Z" stroke="#000000" stroke-width="4.0" fill="none"/>
<text text-anchor="middle" x="480.0" y="122.0" fill="#000000" style="font-size:24px">registers</text>
<text text-anchor="start" x="444.0" y="146.75" fill="#808080" style="font-size:18px">Din</text>
<text text-anchor="start" x="444.0" y="166.75" fill="#808080" style="font-size:18px">we</text>
<text text-anchor="start" x="444.0" y="186.75" fill="#808080" style="font-size:18px">Rw</text>
<path d="M 441,207 L 448,200 L 441,193" stroke="#000000" stroke-width="2.0" fill="none"/>
<text text-anchor="start" x="451.0" y="206.75" fill="#808080" style="font-size:18px">C</text>
<text text-anchor="start" x="444.0" y="226.75" fill="#808080" style="font-size:18px">Ra</text>
<text text-anchor="start" x="444.0" y="246.75" fill="#808080" style="font-size:18px">Rb</text>
<text text-anchor="end" x="516.0" y="146.75" fill="#808080" style="font-size:18px">Da</text>
<text text-anchor="end" x="516.0" y="166.75" fill="#808080" style="font-size:18px">Db</text>
<text text-anchor="middle" x="480.0" y="267.5" fill="#808080" style="font-size:18px">Register</text>
<circle cx="440.0" cy="140.0" r="2.0" stroke="#0000b2" stroke-width="4.0" fill="#0000b2" />
<circle cx="440.0" cy="160.0" r="2.0" stroke="#0000b2" stroke-width="4.0" fill="#0000b2" />
<circle cx="440.0" cy="180.0" r="2.0" stroke="#0000b2" stroke-width="4.0" fill="#0000b2" />
<circle cx="440.0" cy="200.0" r="2.0" stroke="#0000b2" stroke-width="4.0" fill="#0000b2" />
<circle cx="440.0" cy="220.0" r="2.0" stroke="#0000b2" stroke-width="4.0" fill="#0000b2" />
<circle cx="440.0" cy="240.0" r="2.0" stroke="#0000b2" stroke-width="4.0" fill="#0000b2" />
<circle cx="520.0" cy="140.0" r="2.0" stroke="#b20000" stroke-width="4.0" fill="#b20000" />
<circle cx="520.0" cy="160.0" r="2.0" stroke="#b20000" stroke-width="4.0" fill="#b20000" />
</g>
<g>
<path d="M 1041,310 L 1099,310 L 1099,370 L 1041,370 Z" stroke="#000000" stroke-width="4.0" fill="none"/>
<text text-anchor="start" x="1044.0" y="326.75" fill="#808080" style="font-size:18px">a</text>
<text text-anchor="start" x="1044.0" y="346.75" fill="#808080" style="font-size:18px">b</text>
<text text-anchor="start" x="1044.0" y="366.75" fill="#808080" style="font-size:18px">c<tspan style="font-size:80%;baseline-shift:sub;">i</tspan></text>
<text text-anchor="end" x="1096.0" y="326.75" fill="#808080" style="font-size:18px">s</text>
<text text-anchor="end" x="1096.0" y="346.75" fill="#808080" style="font-size:18px">c<tspan style="font-size:80%;baseline-shift:sub;">o</tspan></text>
<text text-anchor="middle" x="1070.0" y="387.5" fill="#808080" style="font-size:18px">Add</text>
<circle cx="1040.0" cy="320.0" r="2.0" stroke="#0000b2" stroke-width="4.0" fill="#0000b2" />
<circle cx="1040.0" cy="340.0" r="2.0" stroke="#0000b2" stroke-width="4.0" fill="#0000b2" />
<circle cx="1040.0" cy="360.0" r="2.0" stroke="#0000b2" stroke-width="4.0" fill="#0000b2" />
<circle cx="1100.0" cy="320.0" r="2.0" stroke="#b20000" stroke-width="4.0" fill="#b20000" />
<circle cx="1100.0" cy="340.0" r="2.0" stroke="#b20000" stroke-width="4.0" fill="#b20000" />
</g>
<g>
<path d="M 821,236 L 859,245 L 859,315 L 821,324 Z" stroke="#000000" stroke-width="4.0" fill="none"/>
<text text-anchor="start" x="823.0" y="255.5" fill="#808080" style="font-size:18px">0</text>
<circle cx="840.0" cy="320.0" r="2.0" stroke="#0000b2" stroke-width="4.0" fill="#0000b2" />
<circle cx="820.0" cy="240.0" r="2.0" stroke="#0000b2" stroke-width="4.0" fill="#0000b2" />
<circle cx="820.0" cy="260.0" r="2.0" stroke="#0000b2" stroke-width="4.0" fill="#0000b2" />
<circle cx="820.0" cy="280.0" r="2.0" stroke="#0000b2" stroke-width="4.0" fill="#0000b2" />
<circle cx="820.0" cy="300.0" r="2.0" stroke="#0000b2" stroke-width="4.0" fill="#0000b2" />
<circle cx="860.0" cy="280.0" r="2.0" stroke="#b20000" stroke-width="4.0" fill="#b20000" />
</g>
<g>
<path d="M 821,376 L 859,385 L 859,455 L 821,464 Z" stroke="#000000" stroke-width="4.0" fill="none"/>
<text text-anchor="start" x="823.0" y="395.5" fill="#808080" style="font-size:18px">0</text>
<circle cx="840.0" cy="460.0" r="2.0" stroke="#0000b2" stroke-width="4.0" fill="#0000b2" />
<circle cx="820.0" cy="380.0" r="2.0" stroke="#0000b2" stroke-width="4.0" fill="#0000b2" />
<circle cx="820.0" cy="400.0" r="2.0" stroke="#0000b2" stroke-width="4.0" fill="#0000b2" />
<circle cx="820.0" cy="420.0" r="2.0" stroke="#0000b2" stroke-width="4.0" fill="#0000b2" />
<circle cx="820.0" cy="440.0" r="2.0" stroke="#0000b2" stroke-width="4.0" fill="#0000b2" />
<circle cx="860.0" cy="420.0" r="2.0" stroke="#b20000" stroke-width="4.0" fill="#b20000" />
</g>
<g>
<path d="M 521,416 L 559,425 L 559,495 L 521,504 Z" stroke="#000000" stroke-width="4.0" fill="none"/>
<text text-anchor="start" x="523.0" y="435.5" fill="#808080" style="font-size:18px">0</text>
<circle cx="540.0" cy="500.0" r="2.0" stroke="#0000b2" stroke-width="4.0" fill="#0000b2" />
<circle cx="520.0" cy="420.0" r="2.0" stroke="#0000b2" stroke-width="4.0" fill="#0000b2" />
<circle cx="520.0" cy="440.0" r="2.0" stroke="#0000b2" stroke-width="4.0" fill="#0000b2" />
<circle cx="520.0" cy="460.0" r="2.0" stroke="#0000b2" stroke-width="4.0" fill="#0000b2" />
<circle cx="520.0" cy="480.0" r="2.0" stroke="#0000b2" stroke-width="4.0" fill="#0000b2" />
<circle cx="560.0" cy="460.0" r="2.0" stroke="#b20000" stroke-width="4.0" fill="#b20000" />
</g>
<g>
<path d="M 710,410 L 661,410 L 661,350 L 710,350 C 720,350 740,360 739,380 C 739,400 720,410 710,410 Z" stroke="#000000" stroke-width="4.0" fill="none"/>
<circle cx="660.0" cy="360.0" r="2.0" stroke="#0000b2" stroke-width="4.0" fill="#0000b2" />
<circle cx="660.0" cy="400.0" r="2.0" stroke="#0000b2" stroke-width="4.0" fill="#0000b2" />
<circle cx="740.0" cy="380.0" r="2.0" stroke="#b20000" stroke-width="4.0" fill="#b20000" />
</g>
<g>
<path d="M 690,490 L 660,490 C 670,474 670,446 660,430 L 680,430 C 710,430 730,440 740,460 C 730,480 710,490 690,490 Z" stroke="#000000" stroke-width="4.0" fill="none"/>
<circle cx="660.0" cy="440.0" r="2.0" stroke="#0000b2" stroke-width="4.0" fill="#0000b2" />
<circle cx="660.0" cy="480.0" r="2.0" stroke="#0000b2" stroke-width="4.0" fill="#0000b2" />
<circle cx="740.0" cy="460.0" r="2.0" stroke="#b20000" stroke-width="4.0" fill="#b20000" />
</g>
<g>
<path d="M 690,570 L 670,570 C 680,554 680,526 670,510 L 690,510 C 710,510 730,520 740,540 C 730,560 710,570 690,570 Z" stroke="#000000" stroke-width="4.0" fill="none"/>
<path d="M 660,570 C 670,560 670,520 660,510" stroke="#000000" stroke-width="4.0" fill="none"/>
<circle cx="660.0" cy="520.0" r="2.0" stroke="#0000b2" stroke-width="4.0" fill="#0000b2" />
<circle cx="660.0" cy="560.0" r="2.0" stroke="#0000b2" stroke-width="4.0" fill="#0000b2" />
<circle cx="740.0" cy="540.0" r="2.0" stroke="#b20000" stroke-width="4.0" fill="#b20000" />
</g>
<g>
<path d="M 1301,310 L 1359,310 L 1359,370 L 1301,370 Z" stroke="#000000" stroke-width="4.0" fill="none"/>
<text text-anchor="middle" x="1330.0" y="302.0" fill="#000000" style="font-size:24px">prevR</text>
<text text-anchor="start" x="1304.0" y="326.75" fill="#808080" style="font-size:18px">D</text>
<path d="M 1301,347 L 1308,340 L 1301,333" stroke="#000000" stroke-width="2.0" fill="none"/>
<text text-anchor="start" x="1311.0" y="346.75" fill="#808080" style="font-size:18px">C</text>
<text text-anchor="start" x="1304.0" y="366.75" fill="#808080" style="font-size:18px">en</text>
<text text-anchor="end" x="1356.0" y="346.75" fill="#808080" style="font-size:18px">Q</text>
<text text-anchor="middle" x="1330.0" y="387.5" fill="#808080" style="font-size:18px">Reg</text>
<circle cx="1300.0" cy="320.0" r="2.0" stroke="#0000b2" stroke-width="4.0" fill="#0000b2" />
<circle cx="1300.0" cy="340.0" r="2.0" stroke="#0000b2" stroke-width="4.0" fill="#0000b2" />
<circle cx="1300.0" cy="360.0" r="2.0" stroke="#0000b2" stroke-width="4.0" fill="#0000b2" />
<circle cx="1360.0" cy="340.0" r="2.0" stroke="#b20000" stroke-width="4.0" fill="#b20000" />
</g>
<g>
<path d="M 721,248 L 739,260 L 721,272 Z" stroke="#000000" stroke-width="4.0" fill="none"/>
<circle cx="750.0" cy="260.0" r="9.0" stroke="#000000" stroke-width="4.0" fill="none" />
<circle cx="720.0" cy="260.0" r="2.0" stroke="#0000b2" stroke-width="4.0" fill="#0000b2" />
<circle cx="760.0" cy="260.0" r="2.0" stroke="#b20000" stroke-width="4.0" fill="#b20000" />
</g>
<g>
<text text-anchor="end" x="697.0" y="309.0" fill="#000000" style="font-size:24px">0</text>
<circle cx="700.0" cy="300.0" r="2.0" stroke="#b20000" stroke-width="4.0" fill="#b20000" />
</g>
<g>
<text text-anchor="end" x="737.0" y="329.0" fill="#000000" style="font-size:24px">-2</text>
<circle cx="740.0" cy="320.0" r="2.0" stroke="#b20000" stroke-width="4.0" fill="#b20000" />
</g>
<g>
<path d="M 1021,96 L 1059,105 L 1059,135 L 1021,144 Z" stroke="#000000" stroke-width="4.0" fill="none"/>
<text text-anchor="start" x="1023.0" y="115.5" fill="#808080" style="font-size:18px">0</text>
<circle cx="1040.0" cy="140.0" r="2.0" stroke="#0000b2" stroke-width="4.0" fill="#0000b2" />
<circle cx="1020.0" cy="100.0" r="2.0" stroke="#0000b2" stroke-width="4.0" fill="#0000b2" />
<circle cx="1020.0" cy="140.0" r="2.0" stroke="#0000b2" stroke-width="4.0" fill="#0000b2" />
<circle cx="1060.0" cy="120.0" r="2.0" stroke="#b20000" stroke-width="4.0" fill="#b20000" />
</g>
<g>
<path d="M 1041,216 L 1079,225 L 1079,255 L 1041,264 Z" stroke="#000000" stroke-width="4.0" fill="none"/>
<text text-anchor="start" x="1043.0" y="235.5" fill="#808080" style="font-size:18px">0</text>
<circle cx="1060.0" cy="260.0" r="2.0" stroke="#0000b2" stroke-width="4.0" fill="#0000b2" />
<circle cx="1040.0" cy="220.0" r="2.0" stroke="#0000b2" stroke-width="4.0" fill="#0000b2" />
<circle cx="1040.0" cy="260.0" r="2.0" stroke="#0000b2" stroke-width="4.0" fill="#0000b2" />
<circle cx="1080.0" cy="240.0" r="2.0" stroke="#b20000" stroke-width="4.0" fill="#b20000" />
</g>
<g>
<text text-anchor="end" x="858.0" y="192.0" fill="#808080" style="font-size:12px">0-7</text>
<text text-anchor="start" x="882.0" y="192.0" fill="#808080" style="font-size:12px">0</text>
<text text-anchor="start" x="882.0" y="172.0" fill="#808080" style="font-size:12px">1-6</text>
<text text-anchor="start" x="882.0" y="152.0" fill="#808080" style="font-size:12px">7</text>
<path d="M 868,182 L 872,182 L 872,138 L 868,138 Z" stroke="#000000" stroke-width="4.0" fill="#000000" fill-opacity="1.0"/>
<circle cx="860.0" cy="180.0" r="2.0" stroke="#0000b2" stroke-width="4.0" fill="#0000b2" />
<circle cx="880.0" cy="180.0" r="2.0" stroke="#b20000" stroke-width="4.0" fill="#b20000" />
<circle cx="880.0" cy="160.0" r="2.0" stroke="#b20000" stroke-width="4.0" fill="#b20000" />
<circle cx="880.0" cy="140.0" r="2.0" stroke="#b20000" stroke-width="4.0" fill="#b20000" />
</g>
<g>
<text text-anchor="end" x="1118.0" y="212.0" fill="#808080" style="font-size:12px">0</text>
<text text-anchor="end" x="1118.0" y="192.0" fill="#808080" style="font-size:12px">1-6</text>
<text text-anchor="end" x="1118.0" y="172.0" fill="#808080" style="font-size:12px">7</text>
<text text-anchor="end" x="1118.0" y="152.0" fill="#808080" style="font-size:12px">8-15</text>
<text text-anchor="start" x="1142.0" y="212.0" fill="#808080" style="font-size:12px">0-15</text>
<path d="M 1128,202 L 1132,202 L 1132,138 L 1128,138 Z" stroke="#000000" stroke-width="4.0" fill="#000000" fill-opacity="1.0"/>
<circle cx="1120.0" cy="200.0" r="2.0" stroke="#0000b2" stroke-width="4.0" fill="#0000b2" />
<circle cx="1120.0" cy="180.0" r="2.0" stroke="#0000b2" stroke-width="4.0" fill="#0000b2" />
<circle cx="1120.0" cy="160.0" r="2.0" stroke="#0000b2" stroke-width="4.0" fill="#0000b2" />
<circle cx="1120.0" cy="140.0" r="2.0" stroke="#0000b2" stroke-width="4.0" fill="#0000b2" />
<circle cx="1140.0" cy="200.0" r="2.0" stroke="#b20000" stroke-width="4.0" fill="#b20000" />
</g>
<g>
<path d="M 269,445 L 299,445 L 299,475 L 269,475 Z" stroke="#000000" stroke-width="4.0" fill="none"/>
<circle cx="284.0" cy="460.0" r="9.0" stroke="#000000" stroke-width="4.0" fill="none" />
<text text-anchor="end" x="255.0" y="469.0" fill="#000000" style="font-size:24px"><tspan style="font-style:italic;">in0</tspan></text>
<circle cx="300.0" cy="460.0" r="2.0" stroke="#b20000" stroke-width="4.0" fill="#b20000" />
</g>
<g>
<path d="M 269,505 L 299,505 L 299,535 L 269,535 Z" stroke="#000000" stroke-width="4.0" fill="none"/>
<circle cx="284.0" cy="520.0" r="9.0" stroke="#000000" stroke-width="4.0" fill="none" />
<text text-anchor="end" x="255.0" y="529.0" fill="#000000" style="font-size:24px"><tspan style="font-style:italic;">in1</tspan></text>
<circle cx="300.0" cy="520.0" r="2.0" stroke="#b20000" stroke-width="4.0" fill="#b20000" />
</g>
<g>
<circle cx="1316.0" cy="60.0" r="9.0" stroke="#000000" stroke-width="4.0" fill="none" />
<circle cx="1316.0" cy="60.0" r="15.0" stroke="#000000" stroke-width="4.0" fill="none" />
<text text-anchor="start" x="1345.0" y="69.0" fill="#000000" style="font-size:24px"><tspan style="font-style:italic;">R</tspan></text>
<circle cx="1300.0" cy="60.0" r="2.0" stroke="#0000b2" stroke-width="4.0" fill="#0000b2" />
</g>
<g>
<text text-anchor="end" x="878.0" y="277.0" fill="#808080" style="font-size:12px">0-7</text>
<text text-anchor="start" x="902.0" y="277.0" fill="#808080" style="font-size:12px">0-6</text>
<text text-anchor="start" x="902.0" y="297.0" fill="#808080" style="font-size:12px">7</text>
<path d="M 888,278 L 892,278 L 892,302 L 888,302 Z" stroke="#000000" stroke-width="4.0" fill="#000000" fill-opacity="1.0"/>
<circle cx="880.0" cy="280.0" r="2.0" stroke="#0000b2" stroke-width="4.0" fill="#0000b2" />
<circle cx="900.0" cy="280.0" r="2.0" stroke="#b20000" stroke-width="4.0" fill="#b20000" />
<circle cx="900.0" cy="300.0" r="2.0" stroke="#b20000" stroke-width="4.0" fill="#b20000" />
</g>
<g>
<text text-anchor="end" x="938.0" y="277.0" fill="#808080" style="font-size:12px">0-6</text>
<text text-anchor="end" x="938.0" y="297.0" fill="#808080" style="font-size:12px">7</text>
<text text-anchor="start" x="962.0" y="277.0" fill="#808080" style="font-size:12px">0-7</text>
<path d="M 948,278 L 952,278 L 952,302 L 948,302 Z" stroke="#000000" stroke-width="4.0" fill="#000000" fill-opacity="1.0"/>
<circle cx="940.0" cy="280.0" r="2.0" stroke="#0000b2" stroke-width="4.0" fill="#0000b2" />
<circle cx="940.0" cy="300.0" r="2.0" stroke="#0000b2" stroke-width="4.0" fill="#0000b2" />
<circle cx="960.0" cy="280.0" r="2.0" stroke="#b20000" stroke-width="4.0" fill="#b20000" />
</g>
<g>
<text text-anchor="end" x="878.0" y="417.0" fill="#808080" style="font-size:12px">0-7</text>
<text text-anchor="start" x="902.0" y="417.0" fill="#808080" style="font-size:12px">0-6</text>
<text text-anchor="start" x="902.0" y="437.0" fill="#808080" style="font-size:12px">7</text>
<path d="M 888,418 L 892,418 L 892,442 L 888,442 Z" stroke="#000000" stroke-width="4.0" fill="#000000" fill-opacity="1.0"/>
<circle cx="880.0" cy="420.0" r="2.0" stroke="#0000b2" stroke-width="4.0" fill="#0000b2" />
<circle cx="900.0" cy="420.0" r="2.0" stroke="#b20000" stroke-width="4.0" fill="#b20000" />
<circle cx="900.0" cy="440.0" r="2.0" stroke="#b20000" stroke-width="4.0" fill="#b20000" />
</g>
<g>
<text text-anchor="end" x="938.0" y="417.0" fill="#808080" style="font-size:12px">0-6</text>
<text text-anchor="end" x="938.0" y="437.0" fill="#808080" style="font-size:12px">7</text>
<text text-anchor="start" x="962.0" y="417.0" fill="#808080" style="font-size:12px">0-7</text>
<path d="M 948,418 L 952,418 L 952,442 L 948,442 Z" stroke="#000000" stroke-width="4.0" fill="#000000" fill-opacity="1.0"/>
<circle cx="940.0" cy="420.0" r="2.0" stroke="#0000b2" stroke-width="4.0" fill="#0000b2" />
<circle cx="940.0" cy="440.0" r="2.0" stroke="#0000b2" stroke-width="4.0" fill="#0000b2" />
<circle cx="960.0" cy="420.0" r="2.0" stroke="#b20000" stroke-width="4.0" fill="#b20000" />
</g>
<g>
<text text-anchor="end" x="1118.0" y="317.0" fill="#808080" style="font-size:12px">0-7</text>
<text text-anchor="start" x="1142.0" y="317.0" fill="#808080" style="font-size:12px">0-6</text>
<text text-anchor="start" x="1142.0" y="337.0" fill="#808080" style="font-size:12px">7</text>
<path d="M 1128,318 L 1132,318 L 1132,342 L 1128,342 Z" stroke="#000000" stroke-width="4.0" fill="#000000" fill-opacity="1.0"/>
<circle cx="1120.0" cy="320.0" r="2.0" stroke="#0000b2" stroke-width="4.0" fill="#0000b2" />
<circle cx="1140.0" cy="320.0" r="2.0" stroke="#b20000" stroke-width="4.0" fill="#b20000" />
<circle cx="1140.0" cy="340.0" r="2.0" stroke="#b20000" stroke-width="4.0" fill="#b20000" />
</g>
<g>
<text text-anchor="end" x="1178.0" y="317.0" fill="#808080" style="font-size:12px">0-6</text>
<text text-anchor="end" x="1178.0" y="337.0" fill="#808080" style="font-size:12px">7</text>
<text text-anchor="start" x="1202.0" y="317.0" fill="#808080" style="font-size:12px">0-7</text>
<path d="M 1188,318 L 1192,318 L 1192,342 L 1188,342 Z" stroke="#000000" stroke-width="4.0" fill="#000000" fill-opacity="1.0"/>
<circle cx="1180.0" cy="320.0" r="2.0" stroke="#0000b2" stroke-width="4.0" fill="#0000b2" />
<circle cx="1180.0" cy="340.0" r="2.0" stroke="#0000b2" stroke-width="4.0" fill="#0000b2" />
<circle cx="1200.0" cy="320.0" r="2.0" stroke="#b20000" stroke-width="4.0" fill="#b20000" />
</g>
<g>
<text text-anchor="end" x="1277.0" y="369.0" fill="#000000" style="font-size:24px">1</text>
<circle cx="1280.0" cy="360.0" r="2.0" stroke="#b20000" stroke-width="4.0" fill="#b20000" />
</g>
<g>
<path d="M 1150,570 L 1150,540 C 1166,550 1194,550 1210,540 L 1210,560 C 1210,590 1200,610 1180,620 C 1160,610 1150,590 1150,570 Z" stroke="#000000" stroke-width="4.0" fill="none"/>
<circle cx="1260.0" cy="540.0" r="2.0" stroke="#0000b2" stroke-width="4.0" fill="#0000b2" />
<circle cx="1240.0" cy="540.0" r="2.0" stroke="#0000b2" stroke-width="4.0" fill="#0000b2" />
<circle cx="1220.0" cy="540.0" r="2.0" stroke="#0000b2" stroke-width="4.0" fill="#0000b2" />
<circle cx="1200.0" cy="540.0" r="2.0" stroke="#0000b2" stroke-width="4.0" fill="#0000b2" />
<circle cx="1160.0" cy="540.0" r="2.0" stroke="#0000b2" stroke-width="4.0" fill="#0000b2" />
<circle cx="1140.0" cy="540.0" r="2.0" stroke="#0000b2" stroke-width="4.0" fill="#0000b2" />
<circle cx="1120.0" cy="540.0" r="2.0" stroke="#0000b2" stroke-width="4.0" fill="#0000b2" />
<circle cx="1100.0" cy="540.0" r="2.0" stroke="#0000b2" stroke-width="4.0" fill="#0000b2" />
<circle cx="1180.0" cy="620.0" r="2.0" stroke="#b20000" stroke-width="4.0" fill="#b20000" />
</g>
<g>
<text text-anchor="start" x="1243.0" y="467.0" fill="#808080" style="font-size:12px" transform="rotate(-90,1243.0,458.0)" >0-7</text>
<text text-anchor="end" x="1243.0" y="491.0" fill="#808080" style="font-size:12px" transform="rotate(-90,1243.0,482.0)" >0</text>
<text text-anchor="end" x="1223.0" y="491.0" fill="#808080" style="font-size:12px" transform="rotate(-90,1223.0,482.0)" >1</text>
<text text-anchor="end" x="1203.0" y="491.0" fill="#808080" style="font-size:12px" transform="rotate(-90,1203.0,482.0)" >2</text>
<text text-anchor="end" x="1183.0" y="491.0" fill="#808080" style="font-size:12px" transform="rotate(-90,1183.0,482.0)" >3</text>
<text text-anchor="end" x="1163.0" y="491.0" fill="#808080" style="font-size:12px" transform="rotate(-90,1163.0,482.0)" >4</text>
<text text-anchor="end" x="1143.0" y="491.0" fill="#808080" style="font-size:12px" transform="rotate(-90,1143.0,482.0)" >5</text>
<text text-anchor="end" x="1123.0" y="491.0" fill="#808080" style="font-size:12px" transform="rotate(-90,1123.0,482.0)" >6</text>
<text text-anchor="end" x="1103.0" y="491.0" fill="#808080" style="font-size:12px" transform="rotate(-90,1103.0,482.0)" >7</text>
<path d="M 1242,468 L 1242,472 L 1098,472 L 1098,468 Z" stroke="#000000" stroke-width="4.0" fill="#000000" fill-opacity="1.0"/>
<circle cx="1240.0" cy="460.0" r="2.0" stroke="#0000b2" stroke-width="4.0" fill="#0000b2" />
<circle cx="1240.0" cy="480.0" r="2.0" stroke="#b20000" stroke-width="4.0" fill="#b20000" />
<circle cx="1220.0" cy="480.0" r="2.0" stroke="#b20000" stroke-width="4.0" fill="#b20000" />
<circle cx="1200.0" cy="480.0" r="2.0" stroke="#b20000" stroke-width="4.0" fill="#b20000" />
<circle cx="1180.0" cy="480.0" r="2.0" stroke="#b20000" stroke-width="4.0" fill="#b20000" />
<circle cx="1160.0" cy="480.0" r="2.0" stroke="#b20000" stroke-width="4.0" fill="#b20000" />
<circle cx="1140.0" cy="480.0" r="2.0" stroke="#b20000" stroke-width="4.0" fill="#b20000" />
<circle cx="1120.0" cy="480.0" r="2.0" stroke="#b20000" stroke-width="4.0" fill="#b20000" />
<circle cx="1100.0" cy="480.0" r="2.0" stroke="#b20000" stroke-width="4.0" fill="#b20000" />
</g>
<g>
<path d="M 1221,628 L 1239,640 L 1221,652 Z" stroke="#000000" stroke-width="4.0" fill="none"/>
<circle cx="1250.0" cy="640.0" r="9.0" stroke="#000000" stroke-width="4.0" fill="none" />
<circle cx="1220.0" cy="640.0" r="2.0" stroke="#0000b2" stroke-width="4.0" fill="#0000b2" />
<circle cx="1260.0" cy="640.0" r="2.0" stroke="#b20000" stroke-width="4.0" fill="#b20000" />
</g>
<g>
<path d="M 269,125 L 299,125 L 299,155 L 269,155 Z" stroke="#000000" stroke-width="4.0" fill="none"/>
<circle cx="284.0" cy="140.0" r="9.0" stroke="#000000" stroke-width="4.0" fill="none" />
<text text-anchor="end" x="255.0" y="149.0" fill="#000000" style="font-size:24px"><tspan style="font-style:italic;">wReg</tspan></text>
<circle cx="300.0" cy="140.0" r="2.0" stroke="#b20000" stroke-width="4.0" fill="#b20000" />
</g>
<g>
<path d="M 269,165 L 299,165 L 299,195 L 269,195 Z" stroke="#000000" stroke-width="4.0" fill="none"/>
<circle cx="284.0" cy="180.0" r="9.0" stroke="#000000" stroke-width="4.0" fill="none" />
<text text-anchor="end" x="255.0" y="189.0" fill="#000000" style="font-size:24px"><tspan style="font-style:italic;">wAd</tspan></text>
<circle cx="300.0" cy="180.0" r="2.0" stroke="#b20000" stroke-width="4.0" fill="#b20000" />
</g>
<g>
<path d="M 269,205 L 299,205 L 299,235 L 269,235 Z" stroke="#000000" stroke-width="4.0" fill="none"/>
<circle cx="284.0" cy="220.0" r="9.0" stroke="#000000" stroke-width="4.0" fill="none" />
<text text-anchor="end" x="255.0" y="229.0" fill="#000000" style="font-size:24px"><tspan style="font-style:italic;">aAd</tspan></text>
<circle cx="300.0" cy="220.0" r="2.0" stroke="#b20000" stroke-width="4.0" fill="#b20000" />
</g>
<g>
<path d="M 269,245 L 299,245 L 299,275 L 269,275 Z" stroke="#000000" stroke-width="4.0" fill="none"/>
<circle cx="284.0" cy="260.0" r="9.0" stroke="#000000" stroke-width="4.0" fill="none" />
<text text-anchor="end" x="255.0" y="269.0" fill="#000000" style="font-size:24px"><tspan style="font-style:italic;">bAd</tspan></text>
<circle cx="300.0" cy="260.0" r="2.0" stroke="#b20000" stroke-width="4.0" fill="#b20000" />
</g>
<g>
<circle cx="1456.0" cy="340.0" r="9.0" stroke="#000000" stroke-width="4.0" fill="none" />
<circle cx="1456.0" cy="340.0" r="15.0" stroke="#000000" stroke-width="4.0" fill="none" />
<text text-anchor="start" x="1485.0" y="349.0" fill="#000000" style="font-size:24px"><tspan style="font-style:italic;">dOut</tspan></text>
<circle cx="1440.0" cy="340.0" r="2.0" stroke="#0000b2" stroke-width="4.0" fill="#0000b2" />
</g>
<g>
<path d="M 269,585 L 299,585 L 299,615 L 269,615 Z" stroke="#000000" stroke-width="4.0" fill="none"/>
<circle cx="284.0" cy="600.0" r="9.0" stroke="#000000" stroke-width="4.0" fill="none" />
<text text-anchor="end" x="255.0" y="609.0" fill="#000000" style="font-size:24px"><tspan style="font-style:italic;">dIn</tspan></text>
<circle cx="300.0" cy="600.0" r="2.0" stroke="#b20000" stroke-width="4.0" fill="#b20000" />
</g>
<g>
<circle cx="1456.0" cy="200.0" r="9.0" stroke="#000000" stroke-width="4.0" fill="none" />
<circle cx="1456.0" cy="200.0" r="15.0" stroke="#000000" stroke-width="4.0" fill="none" />
<text text-anchor="start" x="1485.0" y="209.0" fill="#000000" style="font-size:24px"><tspan style="font-style:italic;">address</tspan></text>
<circle cx="1440.0" cy="200.0" r="2.0" stroke="#0000b2" stroke-width="4.0" fill="#0000b2" />
</g>
<g>
<path d="M 489,625 L 519,625 L 519,655 L 489,655 Z" stroke="#000000" stroke-width="4.0" fill="none"/>
<circle cx="504.0" cy="640.0" r="9.0" stroke="#000000" stroke-width="4.0" fill="none" />
<text text-anchor="end" x="475.0" y="649.0" fill="#000000" style="font-size:24px"><tspan style="font-style:italic;">bSel</tspan></text>
<circle cx="520.0" cy="640.0" r="2.0" stroke="#b20000" stroke-width="4.0" fill="#b20000" />
</g>
<g>
<path d="M 769,645 L 799,645 L 799,675 L 769,675 Z" stroke="#000000" stroke-width="4.0" fill="none"/>
<circle cx="784.0" cy="660.0" r="9.0" stroke="#000000" stroke-width="4.0" fill="none" />
<text text-anchor="end" x="755.0" y="669.0" fill="#000000" style="font-size:24px"><tspan style="font-style:italic;">logSel</tspan></text>
<circle cx="800.0" cy="660.0" r="2.0" stroke="#b20000" stroke-width="4.0" fill="#b20000" />
</g>
<g>
<path d="M 789,325 L 819,325 L 819,355 L 789,355 Z" stroke="#000000" stroke-width="4.0" fill="none"/>
<circle cx="804.0" cy="340.0" r="9.0" stroke="#000000" stroke-width="4.0" fill="none" />
<text text-anchor="end" x="775.0" y="349.0" fill="#000000" style="font-size:24px"><tspan style="font-style:italic;">aSel</tspan></text>
<circle cx="820.0" cy="340.0" r="2.0" stroke="#b20000" stroke-width="4.0" fill="#b20000" />
</g>
<g>
<circle cx="1296.0" cy="640.0" r="9.0" stroke="#000000" stroke-width="4.0" fill="none" />
<circle cx="1296.0" cy="640.0" r="15.0" stroke="#000000" stroke-width="4.0" fill="none" />
<text text-anchor="start" x="1325.0" y="649.0" fill="#000000" style="font-size:24px"><tspan style="font-style:italic;">Z</tspan></text>
<circle cx="1280.0" cy="640.0" r="2.0" stroke="#0000b2" stroke-width="4.0" fill="#0000b2" />
</g>
<g>
<circle cx="1176.0" cy="380.0" r="9.0" stroke="#000000" stroke-width="4.0" fill="none" />
<circle cx="1176.0" cy="380.0" r="15.0" stroke="#000000" stroke-width="4.0" fill="none" />
<text text-anchor="start" x="1205.0" y="389.0" fill="#000000" style="font-size:24px"><tspan style="font-style:italic;">C</tspan></text>
<circle cx="1160.0" cy="380.0" r="2.0" stroke="#0000b2" stroke-width="4.0" fill="#0000b2" />
</g>
<g>
<circle cx="1176.0" cy="420.0" r="9.0" stroke="#000000" stroke-width="4.0" fill="none" />
<circle cx="1176.0" cy="420.0" r="15.0" stroke="#000000" stroke-width="4.0" fill="none" />
<text text-anchor="start" x="1205.0" y="429.0" fill="#000000" style="font-size:24px"><tspan style="font-style:italic;">N</tspan></text>
<circle cx="1160.0" cy="420.0" r="2.0" stroke="#0000b2" stroke-width="4.0" fill="#0000b2" />
</g>
<g>
<path d="M 949,345 L 979,345 L 979,375 L 949,375 Z" stroke="#000000" stroke-width="4.0" fill="none"/>
<circle cx="964.0" cy="360.0" r="9.0" stroke="#000000" stroke-width="4.0" fill="none" />
<text text-anchor="end" x="935.0" y="369.0" fill="#000000" style="font-size:24px"><tspan style="font-style:italic;">Cin</tspan></text>
<circle cx="980.0" cy="360.0" r="2.0" stroke="#b20000" stroke-width="4.0" fill="#b20000" />
</g>
<g>
<path d="M 969,125 L 999,125 L 999,155 L 969,155 Z" stroke="#000000" stroke-width="4.0" fill="none"/>
<circle cx="984.0" cy="140.0" r="9.0" stroke="#000000" stroke-width="4.0" fill="none" />
<text text-anchor="end" x="955.0" y="149.0" fill="#000000" style="font-size:24px"><tspan style="font-style:italic;">A7</tspan></text>
<circle cx="1000.0" cy="140.0" r="2.0" stroke="#b20000" stroke-width="4.0" fill="#b20000" />
</g>
<g>
<path d="M 989,245 L 1019,245 L 1019,275 L 989,275 Z" stroke="#000000" stroke-width="4.0" fill="none"/>
<circle cx="1004.0" cy="260.0" r="9.0" stroke="#000000" stroke-width="4.0" fill="none" />
<text text-anchor="end" x="975.0" y="269.0" fill="#000000" style="font-size:24px"><tspan style="font-style:italic;">A0</tspan></text>
<circle cx="1020.0" cy="260.0" r="2.0" stroke="#b20000" stroke-width="4.0" fill="#b20000" />
</g>
<g>
<path d="M 989,165 L 1019,165 L 1019,195 L 989,195 Z" stroke="#000000" stroke-width="4.0" fill="none"/>
<circle cx="1004.0" cy="180.0" r="9.0" stroke="#000000" stroke-width="4.0" fill="none" />
<text text-anchor="end" x="975.0" y="189.0" fill="#000000" style="font-size:24px"><tspan style="font-style:italic;">a7S</tspan></text>
<circle cx="1020.0" cy="180.0" r="2.0" stroke="#b20000" stroke-width="4.0" fill="#b20000" />
</g>
<g>
<path d="M 1151,295 L 1121,295 L 1121,265 L 1151,265 Z" stroke="#000000" stroke-width="4.0" fill="none"/>
<circle cx="1136.0" cy="280.0" r="9.0" stroke="#000000" stroke-width="4.0" fill="none" />
<text text-anchor="start" x="1165.0" y="289.0" fill="#000000" style="font-size:24px"><tspan style="font-style:italic;">a0S</tspan></text>
<circle cx="1120.0" cy="280.0" r="2.0" stroke="#b20000" stroke-width="4.0" fill="#b20000" />
</g>
<g>
<path d="M 890,590 L 890,541 L 950,541 L 950,590 C 950,600 940,620 920,619 C 900,619 890,600 890,590 Z" stroke="#000000" stroke-width="4.0" fill="none"/>
<circle cx="940.0" cy="530.0" r="8.0" stroke="#000000" stroke-width="4.0" fill="none" />
<circle cx="940.0" cy="520.0" r="2.0" stroke="#0000b2" stroke-width="4.0" fill="#0000b2" />
<circle cx="920.0" cy="540.0" r="2.0" stroke="#0000b2" stroke-width="4.0" fill="#0000b2" />
<circle cx="900.0" cy="540.0" r="2.0" stroke="#0000b2" stroke-width="4.0" fill="#0000b2" />
<circle cx="920.0" cy="620.0" r="2.0" stroke="#b20000" stroke-width="4.0" fill="#b20000" />
</g>
<g>
<path d="M 970,590 L 970,541 L 1030,541 L 1030,590 C 1030,600 1020,620 1000,619 C 980,619 970,600 970,590 Z" stroke="#000000" stroke-width="4.0" fill="none"/>
<circle cx="1000.0" cy="530.0" r="8.0" stroke="#000000" stroke-width="4.0" fill="none" />
<circle cx="980.0" cy="530.0" r="8.0" stroke="#000000" stroke-width="4.0" fill="none" />
<circle cx="1020.0" cy="540.0" r="2.0" stroke="#0000b2" stroke-width="4.0" fill="#0000b2" />
<circle cx="1000.0" cy="520.0" r="2.0" stroke="#0000b2" stroke-width="4.0" fill="#0000b2" />
<circle cx="980.0" cy="520.0" r="2.0" stroke="#0000b2" stroke-width="4.0" fill="#0000b2" />
<circle cx="1000.0" cy="620.0" r="2.0" stroke="#b20000" stroke-width="4.0" fill="#b20000" />
</g>
<g>
<path d="M 1050,690 L 1020,690 C 1030,674 1030,646 1020,630 L 1040,630 C 1070,630 1090,640 1100,660 C 1090,680 1070,690 1050,690 Z" stroke="#000000" stroke-width="4.0" fill="none"/>
<circle cx="1020.0" cy="640.0" r="2.0" stroke="#0000b2" stroke-width="4.0" fill="#0000b2" />
<circle cx="1020.0" cy="680.0" r="2.0" stroke="#0000b2" stroke-width="4.0" fill="#0000b2" />
<circle cx="1100.0" cy="660.0" r="2.0" stroke="#b20000" stroke-width="4.0" fill="#b20000" />
</g>
<g>
<circle cx="1136.0" cy="660.0" r="9.0" stroke="#000000" stroke-width="4.0" fill="none" />
<circle cx="1136.0" cy="660.0" r="15.0" stroke="#000000" stroke-width="4.0" fill="none" />
<text text-anchor="start" x="1165.0" y="669.0" fill="#000000" style="font-size:24px"><tspan style="font-style:italic;">V</tspan></text>
<circle cx="1120.0" cy="660.0" r="2.0" stroke="#0000b2" stroke-width="4.0" fill="#0000b2" />
</g>
</g>
</svg>