<?xml version="1.0" encoding="UTF-8" standalone="no"?>
<!-- Created with Digital by H.Neemann -->
<!-- created: Thu Dec 14 15:16:19 BRT 2023 -->

<svg
   xmlns:svg="http://www.w3.org/2000/svg"
   xmlns="http://www.w3.org/2000/svg"
   width="209.1mm"
   height="105.0mm"
   viewBox="187 17 1394 700">
<g stroke-linecap="square">
<path d="M 920,420 L 920,320 L 940,320" stroke="#0000b2" stroke-width="4.0" fill="none"/>
<path d="M 520,640 L 540,640 L 540,500" stroke="#0000b2" stroke-width="4.0" fill="none"/>
<path d="M 300,260 L 320,260 L 320,240 L 440,240" stroke="#0000b2" stroke-width="4.0" fill="none"/>
<path d="M 1020,260 L 1040,260" stroke="#0000b2" stroke-width="4.0" fill="none"/>
<path d="M 300,520 L 480,520 L 480,480 L 520,480" stroke="#0000b2" stroke-width="4.0" fill="none"/>
<path d="M 400,700 L 400,200 L 440,200" stroke="#0000b2" stroke-width="4.0" fill="none"/>
<path d="M 1140,200 L 1440,200" stroke="#0000b2" stroke-width="4.0" fill="none"/>
<path d="M 300,460 L 520,460" stroke="#0000b2" stroke-width="4.0" fill="none"/>
<path d="M 980,460 L 1180,460 L 1180,320 L 1240,320 L 1300,320" stroke="#0000b2" stroke-width="4.0" fill="none"/>
<path d="M 560,460 L 840,460 L 840,500 L 900,500" stroke="#0000b2" stroke-width="4.0" fill="none"/>
<path d="M 520,140 L 620,140 L 620,80 L 1100,80 L 1100,140 L 1120,140" stroke="#0000b2" stroke-width="4.0" fill="none"/>
<path d="M 300,140 L 320,140 L 320,160 L 440,160" stroke="#0000b2" stroke-width="4.0" fill="none"/>
<path d="M 880,140 L 900,140 L 900,100 L 1020,100" stroke="#0000b2" stroke-width="4.0" fill="none"/>
<path d="M 1000,140 L 1020,140" stroke="#0000b2" stroke-width="4.0" fill="none"/>
<path d="M 1360,340 L 1440,340" stroke="#0000b2" stroke-width="4.0" fill="none"/>
<path d="M 800,660 L 960,660 L 960,500" stroke="#0000b2" stroke-width="4.0" fill="none"/>
<path d="M 1060,260 L 1060,280 L 1120,280" stroke="#0000b2" stroke-width="4.0" fill="none"/>
<path d="M 300,600 L 500,600 L 500,440 L 520,440" stroke="#0000b2" stroke-width="4.0" fill="none"/>
<path d="M 300,220 L 440,220" stroke="#0000b2" stroke-width="4.0" fill="none"/>
<path d="M 800,540 L 860,540 L 860,520 L 900,520" stroke="#0000b2" stroke-width="4.0" fill="none"/>
<path d="M 520,160 L 540,160 L 540,180 L 860,180" stroke="#0000b2" stroke-width="4.0" fill="none"/>
<path d="M 880,160 L 920,160 L 920,200 L 1080,200 L 1080,180 L 1120,180" stroke="#0000b2" stroke-width="4.0" fill="none"/>
<path d="M 980,440 L 980,420 L 1020,420" stroke="#0000b2" stroke-width="4.0" fill="none"/>
<path d="M 1280,360 L 1300,360" stroke="#0000b2" stroke-width="4.0" fill="none"/>
<path d="M 940,420 L 940,360 L 1000,360 L 1000,340 L 1020,340" stroke="#0000b2" stroke-width="4.0" fill="none"/>
<path d="M 800,620 L 920,620 L 920,520" stroke="#0000b2" stroke-width="4.0" fill="none"/>
<path d="M 1080,240 L 1100,240 L 1100,200 L 1120,200" stroke="#0000b2" stroke-width="4.0" fill="none"/>
<path d="M 300,180 L 440,180" stroke="#0000b2" stroke-width="4.0" fill="none"/>
<path d="M 880,180 L 900,180 L 900,220 L 1040,220" stroke="#0000b2" stroke-width="4.0" fill="none"/>
<path d="M 1020,180 L 1040,180 L 1040,140" stroke="#0000b2" stroke-width="4.0" fill="none"/>
<path d="M 620,140 L 620,440 L 900,440" stroke="#0000b2" stroke-width="4.0" fill="none"/>
<path d="M 1060,120 L 1080,120 L 1080,160 L 1120,160" stroke="#0000b2" stroke-width="4.0" fill="none"/>
<path d="M 960,440 L 960,380 L 1020,380" stroke="#0000b2" stroke-width="4.0" fill="none"/>
<path d="M 300,700 L 400,700 L 1400,700 L 1400,420 L 1260,420 L 1260,340 L 1300,340" stroke="#0000b2" stroke-width="4.0" fill="none"/>
<path d="M 440,140 L 400,140 L 400,60 L 1240,60 L 1240,320" stroke="#0000b2" stroke-width="4.0" fill="none"/>
<path d="M 520,420 L 500,420 L 500,380 L 540,380 L 540,180" stroke="#0000b2" stroke-width="4.0" fill="none"/>
<path d="M 860,180 L 870,180 L 880,180" stroke="#000000" stroke-width="4.0" fill="none"/>
<path d="M 880,160 L 870,160" stroke="#000000" stroke-width="4.0" fill="none"/>
<path d="M 880,140 L 870,140" stroke="#000000" stroke-width="4.0" fill="none"/>
<path d="M 1120,200 L 1130,200 L 1140,200" stroke="#000000" stroke-width="4.0" fill="none"/>
<path d="M 1120,180 L 1130,180" stroke="#000000" stroke-width="4.0" fill="none"/>
<path d="M 1120,160 L 1130,160" stroke="#000000" stroke-width="4.0" fill="none"/>
<path d="M 1120,140 L 1130,140" stroke="#000000" stroke-width="4.0" fill="none"/>
<g>
<circle cx="1240.0" cy="320.0" r="4.0" stroke="#0000b2" stroke-width="4.0" fill="#0000b2" />
<circle cx="620.0" cy="140.0" r="4.0" stroke="#0000b2" stroke-width="4.0" fill="#0000b2" />
<circle cx="540.0" cy="180.0" r="4.0" stroke="#0000b2" stroke-width="4.0" fill="#0000b2" />
<circle cx="400.0" cy="700.0" r="4.0" stroke="#0000b2" stroke-width="4.0" fill="#0000b2" />
</g>
<g>
<path d="M 269,685 L 299,685 L 299,715 L 269,715 Z" stroke="#000000" stroke-width="4.0" fill="none"/>
<circle cx="284.0" cy="700.0" r="9.0" stroke="#000000" stroke-width="4.0" fill="none" />
<text text-anchor="end" x="255.0" y="709.0" fill="#000000" style="font-size:24px"><tspan style="font-style:italic;">clock</tspan></text>
<circle cx="300.0" cy="700.0" r="2.0" stroke="#b20000" stroke-width="4.0" fill="#b20000" />
</g>
<g>
<path d="M 441,130 L 519,130 L 519,250 L 441,250 Z" stroke="#000000" stroke-width="4.0" fill="none"/>
<text text-anchor="middle" x="480.0" y="122.0" fill="#000000" style="font-size:24px">registers</text>
<text text-anchor="start" x="444.0" y="146.75" fill="#808080" style="font-size:18px">Din</text>
<text text-anchor="start" x="444.0" y="166.75" fill="#808080" style="font-size:18px">we</text>
<text text-anchor="start" x="444.0" y="186.75" fill="#808080" style="font-size:18px">Rw</text>
<path d="M 441,207 L 448,200 L 441,193" stroke="#000000" stroke-width="2.0" fill="none"/>
<text text-anchor="start" x="451.0" y="206.75" fill="#808080" style="font-size:18px">C</text>
<text text-anchor="start" x="444.0" y="226.75" fill="#808080" style="font-size:18px">Ra</text>
<text text-anchor="start" x="444.0" y="246.75" fill="#808080" style="font-size:18px">Rb</text>
<text text-anchor="end" x="516.0" y="146.75" fill="#808080" style="font-size:18px">Da</text>
<text text-anchor="end" x="516.0" y="166.75" fill="#808080" style="font-size:18px">Db</text>
<text text-anchor="middle" x="480.0" y="267.5" fill="#808080" style="font-size:18px">Register</text>
<circle cx="440.0" cy="140.0" r="2.0" stroke="#0000b2" stroke-width="4.0" fill="#0000b2" />
<circle cx="440.0" cy="160.0" r="2.0" stroke="#0000b2" stroke-width="4.0" fill="#0000b2" />
<circle cx="440.0" cy="180.0" r="2.0" stroke="#0000b2" stroke-width="4.0" fill="#0000b2" />
<circle cx="440.0" cy="200.0" r="2.0" stroke="#0000b2" stroke-width="4.0" fill="#0000b2" />
<circle cx="440.0" cy="220.0" r="2.0" stroke="#0000b2" stroke-width="4.0" fill="#0000b2" />
<circle cx="440.0" cy="240.0" r="2.0" stroke="#0000b2" stroke-width="4.0" fill="#0000b2" />
<circle cx="520.0" cy="140.0" r="2.0" stroke="#b20000" stroke-width="4.0" fill="#b20000" />
<circle cx="520.0" cy="160.0" r="2.0" stroke="#b20000" stroke-width="4.0" fill="#b20000" />
</g>
<g>
<path d="M 521,416 L 559,425 L 559,495 L 521,504 Z" stroke="#000000" stroke-width="4.0" fill="none"/>
<text text-anchor="start" x="523.0" y="435.5" fill="#808080" style="font-size:18px">0</text>
<circle cx="540.0" cy="500.0" r="2.0" stroke="#0000b2" stroke-width="4.0" fill="#0000b2" />
<circle cx="520.0" cy="420.0" r="2.0" stroke="#0000b2" stroke-width="4.0" fill="#0000b2" />
<circle cx="520.0" cy="440.0" r="2.0" stroke="#0000b2" stroke-width="4.0" fill="#0000b2" />
<circle cx="520.0" cy="460.0" r="2.0" stroke="#0000b2" stroke-width="4.0" fill="#0000b2" />
<circle cx="520.0" cy="480.0" r="2.0" stroke="#0000b2" stroke-width="4.0" fill="#0000b2" />
<circle cx="560.0" cy="460.0" r="2.0" stroke="#b20000" stroke-width="4.0" fill="#b20000" />
</g>
<g>
<path d="M 1301,310 L 1359,310 L 1359,370 L 1301,370 Z" stroke="#000000" stroke-width="4.0" fill="none"/>
<text text-anchor="middle" x="1330.0" y="302.0" fill="#000000" style="font-size:24px">prevR</text>
<text text-anchor="start" x="1304.0" y="326.75" fill="#808080" style="font-size:18px">D</text>
<path d="M 1301,347 L 1308,340 L 1301,333" stroke="#000000" stroke-width="2.0" fill="none"/>
<text text-anchor="start" x="1311.0" y="346.75" fill="#808080" style="font-size:18px">C</text>
<text text-anchor="start" x="1304.0" y="366.75" fill="#808080" style="font-size:18px">en</text>
<text text-anchor="end" x="1356.0" y="346.75" fill="#808080" style="font-size:18px">Q</text>
<text text-anchor="middle" x="1330.0" y="387.5" fill="#808080" style="font-size:18px">Reg</text>
<circle cx="1300.0" cy="320.0" r="2.0" stroke="#0000b2" stroke-width="4.0" fill="#0000b2" />
<circle cx="1300.0" cy="340.0" r="2.0" stroke="#0000b2" stroke-width="4.0" fill="#0000b2" />
<circle cx="1300.0" cy="360.0" r="2.0" stroke="#0000b2" stroke-width="4.0" fill="#0000b2" />
<circle cx="1360.0" cy="340.0" r="2.0" stroke="#b20000" stroke-width="4.0" fill="#b20000" />
</g>
<g>
<path d="M 1021,96 L 1059,105 L 1059,135 L 1021,144 Z" stroke="#000000" stroke-width="4.0" fill="none"/>
<text text-anchor="start" x="1023.0" y="115.5" fill="#808080" style="font-size:18px">0</text>
<circle cx="1040.0" cy="140.0" r="2.0" stroke="#0000b2" stroke-width="4.0" fill="#0000b2" />
<circle cx="1020.0" cy="100.0" r="2.0" stroke="#0000b2" stroke-width="4.0" fill="#0000b2" />
<circle cx="1020.0" cy="140.0" r="2.0" stroke="#0000b2" stroke-width="4.0" fill="#0000b2" />
<circle cx="1060.0" cy="120.0" r="2.0" stroke="#b20000" stroke-width="4.0" fill="#b20000" />
</g>
<g>
<path d="M 1041,216 L 1079,225 L 1079,255 L 1041,264 Z" stroke="#000000" stroke-width="4.0" fill="none"/>
<text text-anchor="start" x="1043.0" y="235.5" fill="#808080" style="font-size:18px">0</text>
<circle cx="1060.0" cy="260.0" r="2.0" stroke="#0000b2" stroke-width="4.0" fill="#0000b2" />
<circle cx="1040.0" cy="220.0" r="2.0" stroke="#0000b2" stroke-width="4.0" fill="#0000b2" />
<circle cx="1040.0" cy="260.0" r="2.0" stroke="#0000b2" stroke-width="4.0" fill="#0000b2" />
<circle cx="1080.0" cy="240.0" r="2.0" stroke="#b20000" stroke-width="4.0" fill="#b20000" />
</g>
<g>
<text text-anchor="end" x="858.0" y="192.0" fill="#808080" style="font-size:12px">0-7</text>
<text text-anchor="start" x="882.0" y="192.0" fill="#808080" style="font-size:12px">0</text>
<text text-anchor="start" x="882.0" y="172.0" fill="#808080" style="font-size:12px">1-6</text>
<text text-anchor="start" x="882.0" y="152.0" fill="#808080" style="font-size:12px">7</text>
<path d="M 868,182 L 872,182 L 872,138 L 868,138 Z" stroke="#000000" stroke-width="4.0" fill="#000000" fill-opacity="1.0"/>
<circle cx="860.0" cy="180.0" r="2.0" stroke="#0000b2" stroke-width="4.0" fill="#0000b2" />
<circle cx="880.0" cy="180.0" r="2.0" stroke="#b20000" stroke-width="4.0" fill="#b20000" />
<circle cx="880.0" cy="160.0" r="2.0" stroke="#b20000" stroke-width="4.0" fill="#b20000" />
<circle cx="880.0" cy="140.0" r="2.0" stroke="#b20000" stroke-width="4.0" fill="#b20000" />
</g>
<g>
<text text-anchor="end" x="1118.0" y="212.0" fill="#808080" style="font-size:12px">0</text>
<text text-anchor="end" x="1118.0" y="192.0" fill="#808080" style="font-size:12px">1-6</text>
<text text-anchor="end" x="1118.0" y="172.0" fill="#808080" style="font-size:12px">7</text>
<text text-anchor="end" x="1118.0" y="152.0" fill="#808080" style="font-size:12px">8-15</text>
<text text-anchor="start" x="1142.0" y="212.0" fill="#808080" style="font-size:12px">0-15</text>
<path d="M 1128,202 L 1132,202 L 1132,138 L 1128,138 Z" stroke="#000000" stroke-width="4.0" fill="#000000" fill-opacity="1.0"/>
<circle cx="1120.0" cy="200.0" r="2.0" stroke="#0000b2" stroke-width="4.0" fill="#0000b2" />
<circle cx="1120.0" cy="180.0" r="2.0" stroke="#0000b2" stroke-width="4.0" fill="#0000b2" />
<circle cx="1120.0" cy="160.0" r="2.0" stroke="#0000b2" stroke-width="4.0" fill="#0000b2" />
<circle cx="1120.0" cy="140.0" r="2.0" stroke="#0000b2" stroke-width="4.0" fill="#0000b2" />
<circle cx="1140.0" cy="200.0" r="2.0" stroke="#b20000" stroke-width="4.0" fill="#b20000" />
</g>
<g>
<path d="M 269,445 L 299,445 L 299,475 L 269,475 Z" stroke="#000000" stroke-width="4.0" fill="none"/>
<circle cx="284.0" cy="460.0" r="9.0" stroke="#000000" stroke-width="4.0" fill="none" />
<text text-anchor="end" x="255.0" y="469.0" fill="#000000" style="font-size:24px"><tspan style="font-style:italic;">in0</tspan></text>
<circle cx="300.0" cy="460.0" r="2.0" stroke="#b20000" stroke-width="4.0" fill="#b20000" />
</g>
<g>
<path d="M 269,505 L 299,505 L 299,535 L 269,535 Z" stroke="#000000" stroke-width="4.0" fill="none"/>
<circle cx="284.0" cy="520.0" r="9.0" stroke="#000000" stroke-width="4.0" fill="none" />
<text text-anchor="end" x="255.0" y="529.0" fill="#000000" style="font-size:24px"><tspan style="font-style:italic;">in1</tspan></text>
<circle cx="300.0" cy="520.0" r="2.0" stroke="#b20000" stroke-width="4.0" fill="#b20000" />
</g>
<g>
<text text-anchor="end" x="1277.0" y="369.0" fill="#000000" style="font-size:24px">1</text>
<circle cx="1280.0" cy="360.0" r="2.0" stroke="#b20000" stroke-width="4.0" fill="#b20000" />
</g>
<g>
<path d="M 269,125 L 299,125 L 299,155 L 269,155 Z" stroke="#000000" stroke-width="4.0" fill="none"/>
<circle cx="284.0" cy="140.0" r="9.0" stroke="#000000" stroke-width="4.0" fill="none" />
<text text-anchor="end" x="255.0" y="149.0" fill="#000000" style="font-size:24px"><tspan style="font-style:italic;">wReg</tspan></text>
<circle cx="300.0" cy="140.0" r="2.0" stroke="#b20000" stroke-width="4.0" fill="#b20000" />
</g>
<g>
<path d="M 269,165 L 299,165 L 299,195 L 269,195 Z" stroke="#000000" stroke-width="4.0" fill="none"/>
<circle cx="284.0" cy="180.0" r="9.0" stroke="#000000" stroke-width="4.0" fill="none" />
<text text-anchor="end" x="255.0" y="189.0" fill="#000000" style="font-size:24px"><tspan style="font-style:italic;">wAd</tspan></text>
<circle cx="300.0" cy="180.0" r="2.0" stroke="#b20000" stroke-width="4.0" fill="#b20000" />
</g>
<g>
<path d="M 269,205 L 299,205 L 299,235 L 269,235 Z" stroke="#000000" stroke-width="4.0" fill="none"/>
<circle cx="284.0" cy="220.0" r="9.0" stroke="#000000" stroke-width="4.0" fill="none" />
<text text-anchor="end" x="255.0" y="229.0" fill="#000000" style="font-size:24px"><tspan style="font-style:italic;">aAd</tspan></text>
<circle cx="300.0" cy="220.0" r="2.0" stroke="#b20000" stroke-width="4.0" fill="#b20000" />
</g>
<g>
<path d="M 269,245 L 299,245 L 299,275 L 269,275 Z" stroke="#000000" stroke-width="4.0" fill="none"/>
<circle cx="284.0" cy="260.0" r="9.0" stroke="#000000" stroke-width="4.0" fill="none" />
<text text-anchor="end" x="255.0" y="269.0" fill="#000000" style="font-size:24px"><tspan style="font-style:italic;">bAd</tspan></text>
<circle cx="300.0" cy="260.0" r="2.0" stroke="#b20000" stroke-width="4.0" fill="#b20000" />
</g>
<g>
<circle cx="1456.0" cy="340.0" r="9.0" stroke="#000000" stroke-width="4.0" fill="none" />
<circle cx="1456.0" cy="340.0" r="15.0" stroke="#000000" stroke-width="4.0" fill="none" />
<text text-anchor="start" x="1485.0" y="349.0" fill="#000000" style="font-size:24px"><tspan style="font-style:italic;">dOut</tspan></text>
<circle cx="1440.0" cy="340.0" r="2.0" stroke="#0000b2" stroke-width="4.0" fill="#0000b2" />
</g>
<g>
<path d="M 269,585 L 299,585 L 299,615 L 269,615 Z" stroke="#000000" stroke-width="4.0" fill="none"/>
<circle cx="284.0" cy="600.0" r="9.0" stroke="#000000" stroke-width="4.0" fill="none" />
<text text-anchor="end" x="255.0" y="609.0" fill="#000000" style="font-size:24px"><tspan style="font-style:italic;">dIn</tspan></text>
<circle cx="300.0" cy="600.0" r="2.0" stroke="#b20000" stroke-width="4.0" fill="#b20000" />
</g>
<g>
<circle cx="1456.0" cy="200.0" r="9.0" stroke="#000000" stroke-width="4.0" fill="none" />
<circle cx="1456.0" cy="200.0" r="15.0" stroke="#000000" stroke-width="4.0" fill="none" />
<text text-anchor="start" x="1485.0" y="209.0" fill="#000000" style="font-size:24px"><tspan style="font-style:italic;">address</tspan></text>
<circle cx="1440.0" cy="200.0" r="2.0" stroke="#0000b2" stroke-width="4.0" fill="#0000b2" />
</g>
<g>
<path d="M 489,625 L 519,625 L 519,655 L 489,655 Z" stroke="#000000" stroke-width="4.0" fill="none"/>
<circle cx="504.0" cy="640.0" r="9.0" stroke="#000000" stroke-width="4.0" fill="none" />
<text text-anchor="end" x="475.0" y="649.0" fill="#000000" style="font-size:24px"><tspan style="font-style:italic;">bSel</tspan></text>
<circle cx="520.0" cy="640.0" r="2.0" stroke="#b20000" stroke-width="4.0" fill="#b20000" />
</g>
<g>
<path d="M 769,645 L 799,645 L 799,675 L 769,675 Z" stroke="#000000" stroke-width="4.0" fill="none"/>
<circle cx="784.0" cy="660.0" r="9.0" stroke="#000000" stroke-width="4.0" fill="none" />
<text text-anchor="end" x="755.0" y="669.0" fill="#000000" style="font-size:24px"><tspan style="font-style:italic;">logSel</tspan></text>
<circle cx="800.0" cy="660.0" r="2.0" stroke="#b20000" stroke-width="4.0" fill="#b20000" />
</g>
<g>
<circle cx="1036.0" cy="420.0" r="9.0" stroke="#000000" stroke-width="4.0" fill="none" />
<circle cx="1036.0" cy="420.0" r="15.0" stroke="#000000" stroke-width="4.0" fill="none" />
<text text-anchor="start" x="1065.0" y="429.0" fill="#000000" style="font-size:24px"><tspan style="font-style:italic;">Z</tspan></text>
<circle cx="1020.0" cy="420.0" r="2.0" stroke="#0000b2" stroke-width="4.0" fill="#0000b2" />
</g>
<g>
<path d="M 769,525 L 799,525 L 799,555 L 769,555 Z" stroke="#000000" stroke-width="4.0" fill="none"/>
<circle cx="784.0" cy="540.0" r="9.0" stroke="#000000" stroke-width="4.0" fill="none" />
<text text-anchor="end" x="755.0" y="549.0" fill="#000000" style="font-size:24px"><tspan style="font-style:italic;">Cin</tspan></text>
<circle cx="800.0" cy="540.0" r="2.0" stroke="#b20000" stroke-width="4.0" fill="#b20000" />
</g>
<g>
<path d="M 969,125 L 999,125 L 999,155 L 969,155 Z" stroke="#000000" stroke-width="4.0" fill="none"/>
<circle cx="984.0" cy="140.0" r="9.0" stroke="#000000" stroke-width="4.0" fill="none" />
<text text-anchor="end" x="955.0" y="149.0" fill="#000000" style="font-size:24px"><tspan style="font-style:italic;">A7</tspan></text>
<circle cx="1000.0" cy="140.0" r="2.0" stroke="#b20000" stroke-width="4.0" fill="#b20000" />
</g>
<g>
<path d="M 989,245 L 1019,245 L 1019,275 L 989,275 Z" stroke="#000000" stroke-width="4.0" fill="none"/>
<circle cx="1004.0" cy="260.0" r="9.0" stroke="#000000" stroke-width="4.0" fill="none" />
<text text-anchor="end" x="975.0" y="269.0" fill="#000000" style="font-size:24px"><tspan style="font-style:italic;">A0</tspan></text>
<circle cx="1020.0" cy="260.0" r="2.0" stroke="#b20000" stroke-width="4.0" fill="#b20000" />
</g>
<g>
<path d="M 989,165 L 1019,165 L 1019,195 L 989,195 Z" stroke="#000000" stroke-width="4.0" fill="none"/>
<circle cx="1004.0" cy="180.0" r="9.0" stroke="#000000" stroke-width="4.0" fill="none" />
<text text-anchor="end" x="975.0" y="189.0" fill="#000000" style="font-size:24px"><tspan style="font-style:italic;">a7S</tspan></text>
<circle cx="1020.0" cy="180.0" r="2.0" stroke="#b20000" stroke-width="4.0" fill="#b20000" />
</g>
<g>
<path d="M 1151,295 L 1121,295 L 1121,265 L 1151,265 Z" stroke="#000000" stroke-width="4.0" fill="none"/>
<circle cx="1136.0" cy="280.0" r="9.0" stroke="#000000" stroke-width="4.0" fill="none" />
<text text-anchor="start" x="1165.0" y="289.0" fill="#000000" style="font-size:24px"><tspan style="font-style:italic;">a0S</tspan></text>
<circle cx="1120.0" cy="280.0" r="2.0" stroke="#b20000" stroke-width="4.0" fill="#b20000" />
</g>
<g>
<text text-anchor="start" x="862.0" y="37.0" fill="#000000" style="font-size:24px">Address Modification</text>
<path d="M 860,40 L 1280,40 L 1280,300 L 860,300 Z" stroke-dasharray="4.0,4.0" stroke="#000000" stroke-width="1.0" fill="none"/>
</g>
<g>
<path d="M 990,445 L 990,495 L 895,535 L 895,480 L 915,465 L 895,455 L 895,410 Z" stroke="#f2f2b3" stroke-width="4.0" fill="#f2f2b3" fill-opacity="1.0"/>
<path d="M 990,445 L 990,495 L 895,535 L 895,480 L 915,465 L 895,455 L 895,410 Z" stroke="#000000" stroke-width="4.0" fill="none"/>
<text text-anchor="start" x="899.0" y="440.0" fill="#808080" style="font-size:18px">A</text>
<text text-anchor="start" x="900.0" y="507.0" fill="#808080" style="font-size:18px">B</text>
<text text-anchor="start" x="963.0" y="514.0" fill="#808080" style="font-size:18px">logSel</text>
<text text-anchor="start" x="899.0" y="523.0" fill="#808080" style="font-size:18px">Cin</text>
<text text-anchor="end" x="986.0" y="472.0" fill="#808080" style="font-size:18px">R</text>
<text text-anchor="end" x="957.0" y="441.0" fill="#808080" style="font-size:18px">V</text>
<text text-anchor="end" x="938.0" y="434.0" fill="#808080" style="font-size:18px">N</text>
<text text-anchor="end" x="915.0" y="426.0" fill="#808080" style="font-size:18px">C</text>
<text text-anchor="end" x="974.0" y="448.0" fill="#808080" style="font-size:18px">Z</text>
<text text-anchor="start" x="928.0" y="530.0" fill="#808080" style="font-size:18px">aSel</text>
<circle cx="980.0" cy="460.0" r="2.0" stroke="#b20000" stroke-width="4.0" fill="#b20000" />
<circle cx="920.0" cy="420.0" r="2.0" stroke="#b20000" stroke-width="4.0" fill="#b20000" />
<circle cx="980.0" cy="440.0" r="2.0" stroke="#b20000" stroke-width="4.0" fill="#b20000" />
<circle cx="940.0" cy="420.0" r="2.0" stroke="#b20000" stroke-width="4.0" fill="#b20000" />
<circle cx="960.0" cy="440.0" r="2.0" stroke="#b20000" stroke-width="4.0" fill="#b20000" />
<circle cx="960.0" cy="500.0" r="2.0" stroke="#0000b2" stroke-width="4.0" fill="#0000b2" />
<circle cx="920.0" cy="520.0" r="2.0" stroke="#0000b2" stroke-width="4.0" fill="#0000b2" />
<circle cx="900.0" cy="520.0" r="2.0" stroke="#0000b2" stroke-width="4.0" fill="#0000b2" />
<circle cx="900.0" cy="440.0" r="2.0" stroke="#0000b2" stroke-width="4.0" fill="#0000b2" />
<circle cx="900.0" cy="500.0" r="2.0" stroke="#0000b2" stroke-width="4.0" fill="#0000b2" />
</g>
<g>
<path d="M 769,605 L 799,605 L 799,635 L 769,635 Z" stroke="#000000" stroke-width="4.0" fill="none"/>
<circle cx="784.0" cy="620.0" r="9.0" stroke="#000000" stroke-width="4.0" fill="none" />
<text text-anchor="end" x="755.0" y="629.0" fill="#000000" style="font-size:24px"><tspan style="font-style:italic;">aSelf</tspan></text>
<circle cx="800.0" cy="620.0" r="2.0" stroke="#b20000" stroke-width="4.0" fill="#b20000" />
</g>
<g>
<circle cx="1036.0" cy="380.0" r="9.0" stroke="#000000" stroke-width="4.0" fill="none" />
<circle cx="1036.0" cy="380.0" r="15.0" stroke="#000000" stroke-width="4.0" fill="none" />
<text text-anchor="start" x="1065.0" y="389.0" fill="#000000" style="font-size:24px"><tspan style="font-style:italic;">V</tspan></text>
<circle cx="1020.0" cy="380.0" r="2.0" stroke="#0000b2" stroke-width="4.0" fill="#0000b2" />
</g>
<g>
<circle cx="1036.0" cy="340.0" r="9.0" stroke="#000000" stroke-width="4.0" fill="none" />
<circle cx="1036.0" cy="340.0" r="15.0" stroke="#000000" stroke-width="4.0" fill="none" />
<text text-anchor="start" x="1065.0" y="349.0" fill="#000000" style="font-size:24px"><tspan style="font-style:italic;">N</tspan></text>
<circle cx="1020.0" cy="340.0" r="2.0" stroke="#0000b2" stroke-width="4.0" fill="#0000b2" />
</g>
<g>
<circle cx="956.0" cy="320.0" r="9.0" stroke="#000000" stroke-width="4.0" fill="none" />
<circle cx="956.0" cy="320.0" r="15.0" stroke="#000000" stroke-width="4.0" fill="none" />
<text text-anchor="start" x="985.0" y="329.0" fill="#000000" style="font-size:24px"><tspan style="font-style:italic;">C</tspan></text>
<circle cx="940.0" cy="320.0" r="2.0" stroke="#0000b2" stroke-width="4.0" fill="#0000b2" />
</g>
</g>
</svg>