<?xml version="1.0" encoding="UTF-8" standalone="no"?>
<!-- Created with Digital by H.Neemann -->
<!-- created: Sat Dec 30 11:15:41 BRT 2023 -->

<svg
   xmlns:svg="http://www.w3.org/2000/svg"
   xmlns="http://www.w3.org/2000/svg"
   width="145.5mm"
   height="86.1mm"
   viewBox="64 -37 970 574">
<g stroke-linecap="square">
<path d="M 280,340 L 290,340 L 300,340" stroke="#000000" stroke-width="4.0" fill="none"/>
<path d="M 300,360 L 290,360" stroke="#000000" stroke-width="4.0" fill="none"/>
<path d="M 300,380 L 290,380" stroke="#000000" stroke-width="4.0" fill="none"/>
<path d="M 300,400 L 290,400" stroke="#000000" stroke-width="4.0" fill="none"/>
<path d="M 421,440 L 421,449" stroke="#000000" stroke-width="4.0" fill="none"/>
<path d="M 421,520 L 421,511" stroke="#000000" stroke-width="4.0" fill="none"/>
<path d="M 800,220 L 810,220 L 820,220" stroke="#000000" stroke-width="4.0" fill="none"/>
<path d="M 800,240 L 810,240" stroke="#000000" stroke-width="4.0" fill="none"/>
<path d="M 640,120 L 650,120 L 660,120" stroke="#000000" stroke-width="4.0" fill="none"/>
<path d="M 640,140 L 650,140" stroke="#000000" stroke-width="4.0" fill="none"/>
<path d="M 640,160 L 650,160" stroke="#000000" stroke-width="4.0" fill="none"/>
<path d="M 640,180 L 650,180" stroke="#000000" stroke-width="4.0" fill="none"/>
<path d="M 740,320 L 780,320 L 780,240 L 800,240" stroke="#0000b2" stroke-width="4.0" fill="none"/>
<path d="M 920,320 L 940,320" stroke="#0000b2" stroke-width="4.0" fill="none"/>
<path d="M 600,260 L 620,260 L 620,160 L 640,160" stroke="#0000b2" stroke-width="4.0" fill="none"/>
<path d="M 180,520 L 420,520" stroke="#0000b2" stroke-width="4.0" fill="none"/>
<path d="M 620,400 L 640,400 L 640,340" stroke="#0000b2" stroke-width="4.0" fill="none"/>
<path d="M 300,400 L 340,400 L 420,400 L 500,400 L 500,420 L 540,420 L 544,420" stroke="#0000b2" stroke-width="4.0" fill="none"/>
<path d="M 180,-20 L 660,-20 L 660,60 L 820,60" stroke="#0000b2" stroke-width="4.0" fill="none"/>
<path d="M 180,340 L 280,340" stroke="#0000b2" stroke-width="4.0" fill="none"/>
<path d="M 300,340 L 340,340 L 340,200" stroke="#0000b2" stroke-width="4.0" fill="none"/>
<path d="M 780,320 L 780,340 L 820,340 L 824,340" stroke="#0000b2" stroke-width="4.0" fill="none"/>
<path d="M 740,220 L 760,220 L 800,220" stroke="#0000b2" stroke-width="4.0" fill="none"/>
<path d="M 820,220 L 840,220 L 840,140" stroke="#0000b2" stroke-width="4.0" fill="none"/>
<path d="M 500,480 L 520,480 L 520,280 L 534,280" stroke="#0000b2" stroke-width="4.0" fill="none"/>
<path d="M 180,100 L 820,100" stroke="#0000b2" stroke-width="4.0" fill="none"/>
<path d="M 860,100 L 940,100" stroke="#0000b2" stroke-width="4.0" fill="none"/>
<path d="M 300,360 L 380,360 L 400,360 L 400,300 L 660,300 L 664,300" stroke="#0000b2" stroke-width="4.0" fill="none"/>
<path d="M 180,40 L 620,40 L 620,80 L 820,80" stroke="#0000b2" stroke-width="4.0" fill="none"/>
<path d="M 760,220 L 760,300 L 820,300 L 824,300" stroke="#0000b2" stroke-width="4.0" fill="none"/>
<path d="M 340,400 L 340,500 L 420,500" stroke="#0000b2" stroke-width="4.0" fill="none"/>
<path d="M 420,400 L 420,180 L 640,180" stroke="#0000b2" stroke-width="4.0" fill="none"/>
<path d="M 380,360 L 380,440 L 420,440" stroke="#0000b2" stroke-width="4.0" fill="none"/>
<path d="M 660,120 L 820,120" stroke="#0000b2" stroke-width="4.0" fill="none"/>
<path d="M 300,380 L 360,380 L 540,380 L 544,380" stroke="#0000b2" stroke-width="4.0" fill="none"/>
<path d="M 664,340 L 660,340 L 640,340 L 640,240 L 660,240 L 664,240" stroke="#0000b2" stroke-width="4.0" fill="none"/>
<path d="M 640,140 L 360,140 L 360,240 L 520,240 L 534,240" stroke="#0000b2" stroke-width="4.0" fill="none"/>
<path d="M 360,240 L 360,380 L 360,460 L 420,460" stroke="#0000b2" stroke-width="4.0" fill="none"/>
<path d="M 664,200 L 660,200 L 340,200 L 340,120 L 640,120" stroke="#0000b2" stroke-width="4.0" fill="none"/>
<g>
<circle cx="780.0" cy="320.0" r="4.0" stroke="#0000b2" stroke-width="4.0" fill="#0000b2" />
<circle cx="340.0" cy="200.0" r="4.0" stroke="#0000b2" stroke-width="4.0" fill="#0000b2" />
<circle cx="340.0" cy="400.0" r="4.0" stroke="#0000b2" stroke-width="4.0" fill="#0000b2" />
<circle cx="420.0" cy="400.0" r="4.0" stroke="#0000b2" stroke-width="4.0" fill="#0000b2" />
<circle cx="640.0" cy="340.0" r="4.0" stroke="#0000b2" stroke-width="4.0" fill="#0000b2" />
<circle cx="760.0" cy="220.0" r="4.0" stroke="#0000b2" stroke-width="4.0" fill="#0000b2" />
<circle cx="380.0" cy="360.0" r="4.0" stroke="#0000b2" stroke-width="4.0" fill="#0000b2" />
<circle cx="360.0" cy="240.0" r="4.0" stroke="#0000b2" stroke-width="4.0" fill="#0000b2" />
<circle cx="360.0" cy="380.0" r="4.0" stroke="#0000b2" stroke-width="4.0" fill="#0000b2" />
</g>
<g>
<path d="M 149,325 L 179,325 L 179,355 L 149,355 Z" stroke="#000000" stroke-width="4.0" fill="none"/>
<circle cx="164.0" cy="340.0" r="9.0" stroke="#000000" stroke-width="4.0" fill="none" />
<text text-anchor="end" x="135.0" y="349.0" fill="#000000" style="font-size:24px"><tspan style="font-style:italic;">in3</tspan></text>
<circle cx="180.0" cy="340.0" r="2.0" stroke="#b20000" stroke-width="4.0" fill="#b20000" />
</g>
<g>
<path d="M 149,85 L 179,85 L 179,115 L 149,115 Z" stroke="#000000" stroke-width="4.0" fill="none"/>
<circle cx="164.0" cy="100.0" r="9.0" stroke="#000000" stroke-width="4.0" fill="none" />
<text text-anchor="end" x="135.0" y="109.0" fill="#000000" style="font-size:24px"><tspan style="font-style:italic;">in2</tspan></text>
<circle cx="180.0" cy="100.0" r="2.0" stroke="#b20000" stroke-width="4.0" fill="#b20000" />
</g>
<g>
<path d="M 149,25 L 179,25 L 179,55 L 149,55 Z" stroke="#000000" stroke-width="4.0" fill="none"/>
<circle cx="164.0" cy="40.0" r="9.0" stroke="#000000" stroke-width="4.0" fill="none" />
<text text-anchor="end" x="135.0" y="49.0" fill="#000000" style="font-size:24px"><tspan style="font-style:italic;">in1</tspan></text>
<circle cx="180.0" cy="40.0" r="2.0" stroke="#b20000" stroke-width="4.0" fill="#b20000" />
</g>
<g>
<path d="M 149,-35 L 179,-35 L 179,-5 L 149,-5 Z" stroke="#000000" stroke-width="4.0" fill="none"/>
<circle cx="164.0" cy="-20.0" r="9.0" stroke="#000000" stroke-width="4.0" fill="none" />
<text text-anchor="end" x="135.0" y="-11.0" fill="#000000" style="font-size:24px"><tspan style="font-style:italic;">in0</tspan></text>
<circle cx="180.0" cy="-20.0" r="2.0" stroke="#b20000" stroke-width="4.0" fill="#b20000" />
</g>
<g>
<path d="M 149,505 L 179,505 L 179,535 L 149,535 Z" stroke="#000000" stroke-width="4.0" fill="none"/>
<circle cx="164.0" cy="520.0" r="9.0" stroke="#000000" stroke-width="4.0" fill="none" />
<text text-anchor="end" x="135.0" y="529.0" fill="#000000" style="font-size:24px"><tspan style="font-style:italic;">curInt</tspan></text>
<circle cx="180.0" cy="520.0" r="2.0" stroke="#b20000" stroke-width="4.0" fill="#b20000" />
</g>
<g>
<text text-anchor="end" x="278.0" y="337.0" fill="#808080" style="font-size:12px">0-3</text>
<text text-anchor="start" x="302.0" y="337.0" fill="#808080" style="font-size:12px">0</text>
<text text-anchor="start" x="302.0" y="357.0" fill="#808080" style="font-size:12px">1</text>
<text text-anchor="start" x="302.0" y="377.0" fill="#808080" style="font-size:12px">2</text>
<text text-anchor="start" x="302.0" y="397.0" fill="#808080" style="font-size:12px">3</text>
<path d="M 288,338 L 292,338 L 292,402 L 288,402 Z" stroke="#000000" stroke-width="4.0" fill="#000000" fill-opacity="1.0"/>
<circle cx="280.0" cy="340.0" r="2.0" stroke="#0000b2" stroke-width="4.0" fill="#0000b2" />
<circle cx="300.0" cy="340.0" r="2.0" stroke="#b20000" stroke-width="4.0" fill="#b20000" />
<circle cx="300.0" cy="360.0" r="2.0" stroke="#b20000" stroke-width="4.0" fill="#b20000" />
<circle cx="300.0" cy="380.0" r="2.0" stroke="#b20000" stroke-width="4.0" fill="#b20000" />
<circle cx="300.0" cy="400.0" r="2.0" stroke="#b20000" stroke-width="4.0" fill="#b20000" />
</g>
<g>
<path d="M 470,510 L 421,510 L 421,450 L 470,450 C 480,450 500,460 499,480 C 499,500 480,510 470,510 Z" stroke="#000000" stroke-width="4.0" fill="none"/>
<circle cx="420.0" cy="440.0" r="2.0" stroke="#0000b2" stroke-width="4.0" fill="#0000b2" />
<circle cx="420.0" cy="460.0" r="2.0" stroke="#0000b2" stroke-width="4.0" fill="#0000b2" />
<circle cx="420.0" cy="500.0" r="2.0" stroke="#0000b2" stroke-width="4.0" fill="#0000b2" />
<circle cx="420.0" cy="520.0" r="2.0" stroke="#0000b2" stroke-width="4.0" fill="#0000b2" />
<circle cx="500.0" cy="480.0" r="2.0" stroke="#b20000" stroke-width="4.0" fill="#b20000" />
</g>
<g>
<path d="M 570,430 L 540,430 C 550,414 550,386 540,370 L 560,370 C 590,370 610,380 620,400 C 610,420 590,430 570,430 Z" stroke="#000000" stroke-width="4.0" fill="none"/>
<circle cx="540.0" cy="380.0" r="2.0" stroke="#0000b2" stroke-width="4.0" fill="#0000b2" />
<circle cx="540.0" cy="420.0" r="2.0" stroke="#0000b2" stroke-width="4.0" fill="#0000b2" />
<circle cx="620.0" cy="400.0" r="2.0" stroke="#b20000" stroke-width="4.0" fill="#b20000" />
</g>
<g>
<path d="M 690,350 L 660,350 C 670,334 670,306 660,290 L 680,290 C 710,290 730,300 740,320 C 730,340 710,350 690,350 Z" stroke="#000000" stroke-width="4.0" fill="none"/>
<circle cx="660.0" cy="300.0" r="2.0" stroke="#0000b2" stroke-width="4.0" fill="#0000b2" />
<circle cx="660.0" cy="340.0" r="2.0" stroke="#0000b2" stroke-width="4.0" fill="#0000b2" />
<circle cx="740.0" cy="320.0" r="2.0" stroke="#b20000" stroke-width="4.0" fill="#b20000" />
</g>
<g>
<path d="M 690,250 L 660,250 C 670,234 670,206 660,190 L 680,190 C 710,190 730,200 740,220 C 730,240 710,250 690,250 Z" stroke="#000000" stroke-width="4.0" fill="none"/>
<circle cx="660.0" cy="200.0" r="2.0" stroke="#0000b2" stroke-width="4.0" fill="#0000b2" />
<circle cx="660.0" cy="240.0" r="2.0" stroke="#0000b2" stroke-width="4.0" fill="#0000b2" />
<circle cx="740.0" cy="220.0" r="2.0" stroke="#b20000" stroke-width="4.0" fill="#b20000" />
</g>
<g>
<text text-anchor="end" x="798.0" y="217.0" fill="#808080" style="font-size:12px">0</text>
<text text-anchor="end" x="798.0" y="237.0" fill="#808080" style="font-size:12px">1</text>
<text text-anchor="start" x="822.0" y="217.0" fill="#808080" style="font-size:12px">0,1</text>
<path d="M 808,218 L 812,218 L 812,242 L 808,242 Z" stroke="#000000" stroke-width="4.0" fill="#000000" fill-opacity="1.0"/>
<circle cx="800.0" cy="220.0" r="2.0" stroke="#0000b2" stroke-width="4.0" fill="#0000b2" />
<circle cx="800.0" cy="240.0" r="2.0" stroke="#0000b2" stroke-width="4.0" fill="#0000b2" />
<circle cx="820.0" cy="220.0" r="2.0" stroke="#b20000" stroke-width="4.0" fill="#b20000" />
</g>
<g>
<path d="M 821,56 L 859,65 L 859,135 L 821,144 Z" stroke="#000000" stroke-width="4.0" fill="none"/>
<text text-anchor="start" x="823.0" y="75.5" fill="#808080" style="font-size:18px">0</text>
<circle cx="840.0" cy="140.0" r="2.0" stroke="#0000b2" stroke-width="4.0" fill="#0000b2" />
<circle cx="820.0" cy="60.0" r="2.0" stroke="#0000b2" stroke-width="4.0" fill="#0000b2" />
<circle cx="820.0" cy="80.0" r="2.0" stroke="#0000b2" stroke-width="4.0" fill="#0000b2" />
<circle cx="820.0" cy="100.0" r="2.0" stroke="#0000b2" stroke-width="4.0" fill="#0000b2" />
<circle cx="820.0" cy="120.0" r="2.0" stroke="#0000b2" stroke-width="4.0" fill="#0000b2" />
<circle cx="860.0" cy="100.0" r="2.0" stroke="#b20000" stroke-width="4.0" fill="#b20000" />
</g>
<g>
<path d="M 550,290 L 530,290 C 540,274 540,246 530,230 L 550,230 C 570,230 590,240 600,260 C 590,280 570,290 550,290 Z" stroke="#000000" stroke-width="4.0" fill="none"/>
<path d="M 520,290 C 530,280 530,240 520,230" stroke="#000000" stroke-width="4.0" fill="none"/>
<circle cx="520.0" cy="240.0" r="2.0" stroke="#0000b2" stroke-width="4.0" fill="#0000b2" />
<circle cx="520.0" cy="280.0" r="2.0" stroke="#0000b2" stroke-width="4.0" fill="#0000b2" />
<circle cx="600.0" cy="260.0" r="2.0" stroke="#b20000" stroke-width="4.0" fill="#b20000" />
</g>
<g>
<text text-anchor="end" x="638.0" y="117.0" fill="#808080" style="font-size:12px">0</text>
<text text-anchor="end" x="638.0" y="137.0" fill="#808080" style="font-size:12px">1</text>
<text text-anchor="end" x="638.0" y="157.0" fill="#808080" style="font-size:12px">2</text>
<text text-anchor="end" x="638.0" y="177.0" fill="#808080" style="font-size:12px">3</text>
<text text-anchor="start" x="662.0" y="117.0" fill="#808080" style="font-size:12px">0-3</text>
<path d="M 648,118 L 652,118 L 652,182 L 648,182 Z" stroke="#000000" stroke-width="4.0" fill="#000000" fill-opacity="1.0"/>
<circle cx="640.0" cy="120.0" r="2.0" stroke="#0000b2" stroke-width="4.0" fill="#0000b2" />
<circle cx="640.0" cy="140.0" r="2.0" stroke="#0000b2" stroke-width="4.0" fill="#0000b2" />
<circle cx="640.0" cy="160.0" r="2.0" stroke="#0000b2" stroke-width="4.0" fill="#0000b2" />
<circle cx="640.0" cy="180.0" r="2.0" stroke="#0000b2" stroke-width="4.0" fill="#0000b2" />
<circle cx="660.0" cy="120.0" r="2.0" stroke="#b20000" stroke-width="4.0" fill="#b20000" />
</g>
<g>
<circle cx="956.0" cy="100.0" r="9.0" stroke="#000000" stroke-width="4.0" fill="none" />
<circle cx="956.0" cy="100.0" r="15.0" stroke="#000000" stroke-width="4.0" fill="none" />
<text text-anchor="start" x="985.0" y="109.0" fill="#000000" style="font-size:24px"><tspan style="font-style:italic;">out</tspan></text>
<circle cx="940.0" cy="100.0" r="2.0" stroke="#0000b2" stroke-width="4.0" fill="#0000b2" />
</g>
<g>
<path d="M 850,350 L 820,350 C 830,334 830,306 820,290 L 840,290 C 870,290 890,300 900,320 C 890,340 870,350 850,350 Z" stroke="#000000" stroke-width="4.0" fill="none"/>
<circle cx="910.0" cy="320.0" r="9.0" stroke="#000000" stroke-width="4.0" fill="none" />
<circle cx="820.0" cy="300.0" r="2.0" stroke="#0000b2" stroke-width="4.0" fill="#0000b2" />
<circle cx="820.0" cy="340.0" r="2.0" stroke="#0000b2" stroke-width="4.0" fill="#0000b2" />
<circle cx="920.0" cy="320.0" r="2.0" stroke="#b20000" stroke-width="4.0" fill="#b20000" />
</g>
<g>
<circle cx="956.0" cy="320.0" r="9.0" stroke="#000000" stroke-width="4.0" fill="none" />
<circle cx="956.0" cy="320.0" r="15.0" stroke="#000000" stroke-width="4.0" fill="none" />
<text text-anchor="start" x="985.0" y="329.0" fill="#000000" style="font-size:24px"><tspan style="font-style:italic;">sel0</tspan></text>
<circle cx="940.0" cy="320.0" r="2.0" stroke="#0000b2" stroke-width="4.0" fill="#0000b2" />
</g>
</g>
</svg>