<?xml version="1.0" encoding="UTF-8" standalone="no"?>
<!-- Created with Digital by H.Neemann -->
<!-- created: Wed Dec 27 11:37:14 BRT 2023 -->

<svg
   xmlns:svg="http://www.w3.org/2000/svg"
   xmlns="http://www.w3.org/2000/svg"
   width="171.0mm"
   height="110.85mm"
   viewBox="-124 -97 1140 739">
<g stroke-linecap="square">
<path d="M 40,280 L 50,280 L 60,280" stroke="#000000" stroke-width="4.0" fill="none"/>
<path d="M 60,300 L 50,300" stroke="#000000" stroke-width="4.0" fill="none"/>
<path d="M 60,320 L 50,320" stroke="#000000" stroke-width="4.0" fill="none"/>
<path d="M 60,340 L 50,340" stroke="#000000" stroke-width="4.0" fill="none"/>
<path d="M 60,360 L 50,360" stroke="#000000" stroke-width="4.0" fill="none"/>
<path d="M 60,380 L 50,380" stroke="#000000" stroke-width="4.0" fill="none"/>
<path d="M 60,400 L 50,400" stroke="#000000" stroke-width="4.0" fill="none"/>
<path d="M 60,420 L 50,420" stroke="#000000" stroke-width="4.0" fill="none"/>
<path d="M 700,60 L 710,60 L 720,60" stroke="#000000" stroke-width="4.0" fill="none"/>
<path d="M 700,80 L 710,80" stroke="#000000" stroke-width="4.0" fill="none"/>
<path d="M 700,100 L 710,100" stroke="#000000" stroke-width="4.0" fill="none"/>
<path d="M 200,40 L 210,40 L 220,40" stroke="#000000" stroke-width="4.0" fill="none"/>
<path d="M 200,60 L 210,60" stroke="#000000" stroke-width="4.0" fill="none"/>
<path d="M 200,80 L 210,80" stroke="#000000" stroke-width="4.0" fill="none"/>
<path d="M 200,140 L 210,140 L 220,140" stroke="#000000" stroke-width="4.0" fill="none"/>
<path d="M 200,160 L 210,160" stroke="#000000" stroke-width="4.0" fill="none"/>
<path d="M 200,180 L 210,180" stroke="#000000" stroke-width="4.0" fill="none"/>
<path d="M 500,-80 L 510,-80 L 520,-80" stroke="#000000" stroke-width="4.0" fill="none"/>
<path d="M 500,-60 L 510,-60" stroke="#000000" stroke-width="4.0" fill="none"/>
<path d="M 500,-40 L 510,-40" stroke="#000000" stroke-width="4.0" fill="none"/>
<path d="M 500,-20 L 510,-20" stroke="#000000" stroke-width="4.0" fill="none"/>
<path d="M 60,320 L 140,320 L 380,320 L 380,200" stroke="#0000b2" stroke-width="4.0" fill="none"/>
<path d="M 280,80 L 280,640 L 880,640 L 880,420" stroke="#0000b2" stroke-width="4.0" fill="none"/>
<path d="M 640,580 L 740,580 L 900,580" stroke="#0000b2" stroke-width="4.0" fill="none"/>
<path d="M 860,520 L 900,520" stroke="#0000b2" stroke-width="4.0" fill="none"/>
<path d="M 500,460 L 540,460 L 560,460" stroke="#0000b2" stroke-width="4.0" fill="none"/>
<path d="M 500,140 L 900,140" stroke="#0000b2" stroke-width="4.0" fill="none"/>
<path d="M 140,320 L 140,140 L 200,140" stroke="#0000b2" stroke-width="4.0" fill="none"/>
<path d="M 220,140 L 240,140 L 240,80 L 260,80" stroke="#0000b2" stroke-width="4.0" fill="none"/>
<path d="M 520,-80 L 900,-80" stroke="#0000b2" stroke-width="4.0" fill="none"/>
<path d="M 60,400 L 100,400 L 360,400 L 360,480 L 420,480" stroke="#0000b2" stroke-width="4.0" fill="none"/>
<path d="M 720,280 L 720,400 L 760,400" stroke="#0000b2" stroke-width="4.0" fill="none"/>
<path d="M 120,420 L 120,80 L 200,80" stroke="#0000b2" stroke-width="4.0" fill="none"/>
<path d="M 60,340 L 160,340 L 400,340 L 400,240" stroke="#0000b2" stroke-width="4.0" fill="none"/>
<path d="M -40,280 L 40,280" stroke="#0000b2" stroke-width="4.0" fill="none"/>
<path d="M 60,280 L 340,280 L 340,120" stroke="#0000b2" stroke-width="4.0" fill="none"/>
<path d="M 720,220 L 720,280 L 780,280" stroke="#0000b2" stroke-width="4.0" fill="none"/>
<path d="M 500,220 L 720,220 L 900,220" stroke="#0000b2" stroke-width="4.0" fill="none"/>
<path d="M 740,580 L 740,540 L 760,540" stroke="#0000b2" stroke-width="4.0" fill="none"/>
<path d="M 640,480 L 660,480 L 660,440" stroke="#0000b2" stroke-width="4.0" fill="none"/>
<path d="M 160,340 L 160,160 L 200,160" stroke="#0000b2" stroke-width="4.0" fill="none"/>
<path d="M 60,420 L 120,420 L 340,420 L 340,600 L 520,600 L 540,600" stroke="#0000b2" stroke-width="4.0" fill="none"/>
<path d="M 860,420 L 880,420 L 900,420" stroke="#0000b2" stroke-width="4.0" fill="none"/>
<path d="M 600,360 L 600,100 L 700,100" stroke="#0000b2" stroke-width="4.0" fill="none"/>
<path d="M 60,360 L 180,360 L 600,360 L 900,360" stroke="#0000b2" stroke-width="4.0" fill="none"/>
<path d="M 80,380 L 80,40 L 200,40" stroke="#0000b2" stroke-width="4.0" fill="none"/>
<path d="M 220,40 L 260,40" stroke="#0000b2" stroke-width="4.0" fill="none"/>
<path d="M 60,300 L 360,300 L 360,160 L 420,160" stroke="#0000b2" stroke-width="4.0" fill="none"/>
<path d="M 860,300 L 900,300" stroke="#0000b2" stroke-width="4.0" fill="none"/>
<path d="M 540,460 L 540,560 L 560,560" stroke="#0000b2" stroke-width="4.0" fill="none"/>
<path d="M 520,600 L 520,500 L 560,500" stroke="#0000b2" stroke-width="4.0" fill="none"/>
<path d="M 660,480 L 660,500 L 760,500" stroke="#0000b2" stroke-width="4.0" fill="none"/>
<path d="M 180,360 L 180,180 L 200,180" stroke="#0000b2" stroke-width="4.0" fill="none"/>
<path d="M 340,60 L 340,120 L 420,120" stroke="#0000b2" stroke-width="4.0" fill="none"/>
<path d="M 60,380 L 80,380 L 380,380 L 380,440 L 420,440" stroke="#0000b2" stroke-width="4.0" fill="none"/>
<path d="M 720,60 L 900,60" stroke="#0000b2" stroke-width="4.0" fill="none"/>
<path d="M 100,400 L 100,60 L 200,60" stroke="#0000b2" stroke-width="4.0" fill="none"/>
<path d="M 300,60 L 320,60 L 320,0 L 900,0" stroke="#0000b2" stroke-width="4.0" fill="none"/>
<path d="M 700,80 L 360,80 L 360,-60 L 500,-60" stroke="#0000b2" stroke-width="4.0" fill="none"/>
<path d="M 360,80 L 360,160" stroke="#0000b2" stroke-width="4.0" fill="none"/>
<path d="M 500,-20 L 400,-20 L 400,240 L 420,240" stroke="#0000b2" stroke-width="4.0" fill="none"/>
<path d="M 500,-80 L 340,-80 L 340,60 L 700,60" stroke="#0000b2" stroke-width="4.0" fill="none"/>
<path d="M 780,320 L 660,320 L 660,440 L 780,440" stroke="#0000b2" stroke-width="4.0" fill="none"/>
<path d="M 420,200 L 380,200 L 380,-40 L 500,-40" stroke="#0000b2" stroke-width="4.0" fill="none"/>
<g>
<circle cx="140.0" cy="320.0" r="4.0" stroke="#0000b2" stroke-width="4.0" fill="#0000b2" />
<circle cx="740.0" cy="580.0" r="4.0" stroke="#0000b2" stroke-width="4.0" fill="#0000b2" />
<circle cx="380.0" cy="200.0" r="4.0" stroke="#0000b2" stroke-width="4.0" fill="#0000b2" />
<circle cx="540.0" cy="460.0" r="4.0" stroke="#0000b2" stroke-width="4.0" fill="#0000b2" />
<circle cx="100.0" cy="400.0" r="4.0" stroke="#0000b2" stroke-width="4.0" fill="#0000b2" />
<circle cx="360.0" cy="80.0" r="4.0" stroke="#0000b2" stroke-width="4.0" fill="#0000b2" />
<circle cx="160.0" cy="340.0" r="4.0" stroke="#0000b2" stroke-width="4.0" fill="#0000b2" />
<circle cx="720.0" cy="280.0" r="4.0" stroke="#0000b2" stroke-width="4.0" fill="#0000b2" />
<circle cx="520.0" cy="600.0" r="4.0" stroke="#0000b2" stroke-width="4.0" fill="#0000b2" />
<circle cx="720.0" cy="220.0" r="4.0" stroke="#0000b2" stroke-width="4.0" fill="#0000b2" />
<circle cx="660.0" cy="480.0" r="4.0" stroke="#0000b2" stroke-width="4.0" fill="#0000b2" />
<circle cx="360.0" cy="160.0" r="4.0" stroke="#0000b2" stroke-width="4.0" fill="#0000b2" />
<circle cx="120.0" cy="420.0" r="4.0" stroke="#0000b2" stroke-width="4.0" fill="#0000b2" />
<circle cx="880.0" cy="420.0" r="4.0" stroke="#0000b2" stroke-width="4.0" fill="#0000b2" />
<circle cx="180.0" cy="360.0" r="4.0" stroke="#0000b2" stroke-width="4.0" fill="#0000b2" />
<circle cx="600.0" cy="360.0" r="4.0" stroke="#0000b2" stroke-width="4.0" fill="#0000b2" />
<circle cx="400.0" cy="240.0" r="4.0" stroke="#0000b2" stroke-width="4.0" fill="#0000b2" />
<circle cx="660.0" cy="440.0" r="4.0" stroke="#0000b2" stroke-width="4.0" fill="#0000b2" />
<circle cx="340.0" cy="120.0" r="4.0" stroke="#0000b2" stroke-width="4.0" fill="#0000b2" />
<circle cx="80.0" cy="380.0" r="4.0" stroke="#0000b2" stroke-width="4.0" fill="#0000b2" />
<circle cx="340.0" cy="60.0" r="4.0" stroke="#0000b2" stroke-width="4.0" fill="#0000b2" />
</g>
<g>
<path d="M -71,265 L -41,265 L -41,295 L -71,295 Z" stroke="#000000" stroke-width="4.0" fill="none"/>
<circle cx="-56.0" cy="280.0" r="9.0" stroke="#000000" stroke-width="4.0" fill="none" />
<text text-anchor="end" x="-85.0" y="289.0" fill="#000000" style="font-size:24px"><tspan style="font-style:italic;">dIn</tspan></text>
<circle cx="-40.0" cy="280.0" r="2.0" stroke="#b20000" stroke-width="4.0" fill="#b20000" />
</g>
<g>
<text text-anchor="end" x="38.0" y="277.0" fill="#808080" style="font-size:12px">0-7</text>
<text text-anchor="start" x="62.0" y="277.0" fill="#808080" style="font-size:12px">0</text>
<text text-anchor="start" x="62.0" y="297.0" fill="#808080" style="font-size:12px">1</text>
<text text-anchor="start" x="62.0" y="317.0" fill="#808080" style="font-size:12px">2</text>
<text text-anchor="start" x="62.0" y="337.0" fill="#808080" style="font-size:12px">3</text>
<text text-anchor="start" x="62.0" y="357.0" fill="#808080" style="font-size:12px">4</text>
<text text-anchor="start" x="62.0" y="377.0" fill="#808080" style="font-size:12px">5</text>
<text text-anchor="start" x="62.0" y="397.0" fill="#808080" style="font-size:12px">6</text>
<text text-anchor="start" x="62.0" y="417.0" fill="#808080" style="font-size:12px">7</text>
<path d="M 48,278 L 52,278 L 52,422 L 48,422 Z" stroke="#000000" stroke-width="4.0" fill="#000000" fill-opacity="1.0"/>
<circle cx="40.0" cy="280.0" r="2.0" stroke="#0000b2" stroke-width="4.0" fill="#0000b2" />
<circle cx="60.0" cy="280.0" r="2.0" stroke="#b20000" stroke-width="4.0" fill="#b20000" />
<circle cx="60.0" cy="300.0" r="2.0" stroke="#b20000" stroke-width="4.0" fill="#b20000" />
<circle cx="60.0" cy="320.0" r="2.0" stroke="#b20000" stroke-width="4.0" fill="#b20000" />
<circle cx="60.0" cy="340.0" r="2.0" stroke="#b20000" stroke-width="4.0" fill="#b20000" />
<circle cx="60.0" cy="360.0" r="2.0" stroke="#b20000" stroke-width="4.0" fill="#b20000" />
<circle cx="60.0" cy="380.0" r="2.0" stroke="#b20000" stroke-width="4.0" fill="#b20000" />
<circle cx="60.0" cy="400.0" r="2.0" stroke="#b20000" stroke-width="4.0" fill="#b20000" />
<circle cx="60.0" cy="420.0" r="2.0" stroke="#b20000" stroke-width="4.0" fill="#b20000" />
</g>
<g>
<path d="M 470,490 L 421,490 L 421,430 L 470,430 C 480,430 500,440 499,460 C 499,480 480,490 470,490 Z" stroke="#000000" stroke-width="4.0" fill="none"/>
<circle cx="420.0" cy="440.0" r="2.0" stroke="#0000b2" stroke-width="4.0" fill="#0000b2" />
<circle cx="420.0" cy="480.0" r="2.0" stroke="#0000b2" stroke-width="4.0" fill="#0000b2" />
<circle cx="500.0" cy="460.0" r="2.0" stroke="#b20000" stroke-width="4.0" fill="#b20000" />
</g>
<g>
<path d="M 610,510 L 561,510 L 561,450 L 610,450 C 620,450 640,460 639,480 C 639,500 620,510 610,510 Z" stroke="#000000" stroke-width="4.0" fill="none"/>
<circle cx="560.0" cy="460.0" r="2.0" stroke="#0000b2" stroke-width="4.0" fill="#0000b2" />
<circle cx="560.0" cy="500.0" r="2.0" stroke="#0000b2" stroke-width="4.0" fill="#0000b2" />
<circle cx="640.0" cy="480.0" r="2.0" stroke="#b20000" stroke-width="4.0" fill="#b20000" />
</g>
<g>
<path d="M 610,610 L 561,610 L 561,550 L 610,550 C 620,550 640,560 639,580 C 639,600 620,610 610,610 Z" stroke="#000000" stroke-width="4.0" fill="none"/>
<circle cx="550.0" cy="600.0" r="8.0" stroke="#000000" stroke-width="4.0" fill="none" />
<circle cx="560.0" cy="560.0" r="2.0" stroke="#0000b2" stroke-width="4.0" fill="#0000b2" />
<circle cx="540.0" cy="600.0" r="2.0" stroke="#0000b2" stroke-width="4.0" fill="#0000b2" />
<circle cx="640.0" cy="580.0" r="2.0" stroke="#b20000" stroke-width="4.0" fill="#b20000" />
</g>
<g>
<circle cx="916.0" cy="580.0" r="9.0" stroke="#000000" stroke-width="4.0" fill="none" />
<circle cx="916.0" cy="580.0" r="15.0" stroke="#000000" stroke-width="4.0" fill="none" />
<text text-anchor="start" x="945.0" y="589.0" fill="#000000" style="font-size:24px"><tspan style="font-style:italic;">test</tspan></text>
<circle cx="900.0" cy="580.0" r="2.0" stroke="#0000b2" stroke-width="4.0" fill="#0000b2" />
</g>
<g>
<circle cx="916.0" cy="360.0" r="9.0" stroke="#000000" stroke-width="4.0" fill="none" />
<circle cx="916.0" cy="360.0" r="15.0" stroke="#000000" stroke-width="4.0" fill="none" />
<text text-anchor="start" x="945.0" y="369.0" fill="#000000" style="font-size:24px"><tspan style="font-style:italic;">k</tspan></text>
<circle cx="900.0" cy="360.0" r="2.0" stroke="#0000b2" stroke-width="4.0" fill="#0000b2" />
</g>
<g>
<path d="M 470,170 L 421,170 L 421,110 L 470,110 C 480,110 500,120 499,140 C 499,160 480,170 470,170 Z" stroke="#000000" stroke-width="4.0" fill="none"/>
<circle cx="420.0" cy="120.0" r="2.0" stroke="#0000b2" stroke-width="4.0" fill="#0000b2" />
<circle cx="420.0" cy="160.0" r="2.0" stroke="#0000b2" stroke-width="4.0" fill="#0000b2" />
<circle cx="500.0" cy="140.0" r="2.0" stroke="#b20000" stroke-width="4.0" fill="#b20000" />
</g>
<g>
<path d="M 470,250 L 421,250 L 421,190 L 470,190 C 480,190 500,200 499,220 C 499,240 480,250 470,250 Z" stroke="#000000" stroke-width="4.0" fill="none"/>
<circle cx="420.0" cy="200.0" r="2.0" stroke="#0000b2" stroke-width="4.0" fill="#0000b2" />
<circle cx="420.0" cy="240.0" r="2.0" stroke="#0000b2" stroke-width="4.0" fill="#0000b2" />
<circle cx="500.0" cy="220.0" r="2.0" stroke="#b20000" stroke-width="4.0" fill="#b20000" />
</g>
<g>
<circle cx="916.0" cy="140.0" r="9.0" stroke="#000000" stroke-width="4.0" fill="none" />
<circle cx="916.0" cy="140.0" r="15.0" stroke="#000000" stroke-width="4.0" fill="none" />
<text text-anchor="start" x="945.0" y="149.0" fill="#000000" style="font-size:24px"><tspan style="font-style:italic;">zd</tspan></text>
<circle cx="900.0" cy="140.0" r="2.0" stroke="#0000b2" stroke-width="4.0" fill="#0000b2" />
</g>
<g>
<circle cx="916.0" cy="220.0" r="9.0" stroke="#000000" stroke-width="4.0" fill="none" />
<circle cx="916.0" cy="220.0" r="15.0" stroke="#000000" stroke-width="4.0" fill="none" />
<text text-anchor="start" x="945.0" y="229.0" fill="#000000" style="font-size:24px"><tspan style="font-style:italic;">zs</tspan></text>
<circle cx="900.0" cy="220.0" r="2.0" stroke="#0000b2" stroke-width="4.0" fill="#0000b2" />
</g>
<g>
<path d="M 830,550 L 781,550 L 781,490 L 830,490 C 840,490 860,500 859,520 C 859,540 840,550 830,550 Z" stroke="#000000" stroke-width="4.0" fill="none"/>
<circle cx="770.0" cy="500.0" r="8.0" stroke="#000000" stroke-width="4.0" fill="none" />
<circle cx="770.0" cy="540.0" r="8.0" stroke="#000000" stroke-width="4.0" fill="none" />
<circle cx="760.0" cy="500.0" r="2.0" stroke="#0000b2" stroke-width="4.0" fill="#0000b2" />
<circle cx="760.0" cy="540.0" r="2.0" stroke="#0000b2" stroke-width="4.0" fill="#0000b2" />
<circle cx="860.0" cy="520.0" r="2.0" stroke="#b20000" stroke-width="4.0" fill="#b20000" />
</g>
<g>
<circle cx="916.0" cy="520.0" r="9.0" stroke="#000000" stroke-width="4.0" fill="none" />
<circle cx="916.0" cy="520.0" r="15.0" stroke="#000000" stroke-width="4.0" fill="none" />
<text text-anchor="start" x="945.0" y="529.0" fill="#000000" style="font-size:24px"><tspan style="font-style:italic;">math</tspan></text>
<circle cx="900.0" cy="520.0" r="2.0" stroke="#0000b2" stroke-width="4.0" fill="#0000b2" />
</g>
<g>
<path d="M 830,450 L 781,450 L 781,390 L 830,390 C 840,390 860,400 859,420 C 859,440 840,450 830,450 Z" stroke="#000000" stroke-width="4.0" fill="none"/>
<circle cx="770.0" cy="400.0" r="8.0" stroke="#000000" stroke-width="4.0" fill="none" />
<circle cx="760.0" cy="400.0" r="2.0" stroke="#0000b2" stroke-width="4.0" fill="#0000b2" />
<circle cx="780.0" cy="440.0" r="2.0" stroke="#0000b2" stroke-width="4.0" fill="#0000b2" />
<circle cx="860.0" cy="420.0" r="2.0" stroke="#b20000" stroke-width="4.0" fill="#b20000" />
</g>
<g>
<circle cx="916.0" cy="420.0" r="9.0" stroke="#000000" stroke-width="4.0" fill="none" />
<circle cx="916.0" cy="420.0" r="15.0" stroke="#000000" stroke-width="4.0" fill="none" />
<text text-anchor="start" x="945.0" y="429.0" fill="#000000" style="font-size:24px"><tspan style="font-style:italic;">imm</tspan></text>
<circle cx="900.0" cy="420.0" r="2.0" stroke="#0000b2" stroke-width="4.0" fill="#0000b2" />
</g>
<g>
<path d="M 830,330 L 781,330 L 781,270 L 830,270 C 840,270 860,280 859,300 C 859,320 840,330 830,330 Z" stroke="#000000" stroke-width="4.0" fill="none"/>
<circle cx="780.0" cy="280.0" r="2.0" stroke="#0000b2" stroke-width="4.0" fill="#0000b2" />
<circle cx="780.0" cy="320.0" r="2.0" stroke="#0000b2" stroke-width="4.0" fill="#0000b2" />
<circle cx="860.0" cy="300.0" r="2.0" stroke="#b20000" stroke-width="4.0" fill="#b20000" />
</g>
<g>
<circle cx="916.0" cy="300.0" r="9.0" stroke="#000000" stroke-width="4.0" fill="none" />
<circle cx="916.0" cy="300.0" r="15.0" stroke="#000000" stroke-width="4.0" fill="none" />
<text text-anchor="start" x="945.0" y="309.0" fill="#000000" style="font-size:24px"><tspan style="font-style:italic;">jump</tspan></text>
<circle cx="900.0" cy="300.0" r="2.0" stroke="#0000b2" stroke-width="4.0" fill="#0000b2" />
</g>
<g>
<text text-anchor="end" x="698.0" y="57.0" fill="#808080" style="font-size:12px">0</text>
<text text-anchor="end" x="698.0" y="77.0" fill="#808080" style="font-size:12px">1</text>
<text text-anchor="end" x="698.0" y="97.0" fill="#808080" style="font-size:12px">2</text>
<text text-anchor="start" x="722.0" y="57.0" fill="#808080" style="font-size:12px">0-2</text>
<path d="M 708,58 L 712,58 L 712,102 L 708,102 Z" stroke="#000000" stroke-width="4.0" fill="#000000" fill-opacity="1.0"/>
<circle cx="700.0" cy="60.0" r="2.0" stroke="#0000b2" stroke-width="4.0" fill="#0000b2" />
<circle cx="700.0" cy="80.0" r="2.0" stroke="#0000b2" stroke-width="4.0" fill="#0000b2" />
<circle cx="700.0" cy="100.0" r="2.0" stroke="#0000b2" stroke-width="4.0" fill="#0000b2" />
<circle cx="720.0" cy="60.0" r="2.0" stroke="#b20000" stroke-width="4.0" fill="#b20000" />
</g>
<g>
<circle cx="916.0" cy="60.0" r="9.0" stroke="#000000" stroke-width="4.0" fill="none" />
<circle cx="916.0" cy="60.0" r="15.0" stroke="#000000" stroke-width="4.0" fill="none" />
<text text-anchor="start" x="945.0" y="69.0" fill="#000000" style="font-size:24px"><tspan style="font-style:italic;">jop</tspan></text>
<circle cx="900.0" cy="60.0" r="2.0" stroke="#0000b2" stroke-width="4.0" fill="#0000b2" />
</g>
<g>
<text text-anchor="end" x="198.0" y="37.0" fill="#808080" style="font-size:12px">0</text>
<text text-anchor="end" x="198.0" y="57.0" fill="#808080" style="font-size:12px">1</text>
<text text-anchor="end" x="198.0" y="77.0" fill="#808080" style="font-size:12px">2</text>
<text text-anchor="start" x="222.0" y="37.0" fill="#808080" style="font-size:12px">0-2</text>
<path d="M 208,38 L 212,38 L 212,82 L 208,82 Z" stroke="#000000" stroke-width="4.0" fill="#000000" fill-opacity="1.0"/>
<circle cx="200.0" cy="40.0" r="2.0" stroke="#0000b2" stroke-width="4.0" fill="#0000b2" />
<circle cx="200.0" cy="60.0" r="2.0" stroke="#0000b2" stroke-width="4.0" fill="#0000b2" />
<circle cx="200.0" cy="80.0" r="2.0" stroke="#0000b2" stroke-width="4.0" fill="#0000b2" />
<circle cx="220.0" cy="40.0" r="2.0" stroke="#b20000" stroke-width="4.0" fill="#b20000" />
</g>
<g>
<text text-anchor="end" x="198.0" y="137.0" fill="#808080" style="font-size:12px">0</text>
<text text-anchor="end" x="198.0" y="157.0" fill="#808080" style="font-size:12px">1</text>
<text text-anchor="end" x="198.0" y="177.0" fill="#808080" style="font-size:12px">2</text>
<text text-anchor="start" x="222.0" y="137.0" fill="#808080" style="font-size:12px">0-2</text>
<path d="M 208,138 L 212,138 L 212,182 L 208,182 Z" stroke="#000000" stroke-width="4.0" fill="#000000" fill-opacity="1.0"/>
<circle cx="200.0" cy="140.0" r="2.0" stroke="#0000b2" stroke-width="4.0" fill="#0000b2" />
<circle cx="200.0" cy="160.0" r="2.0" stroke="#0000b2" stroke-width="4.0" fill="#0000b2" />
<circle cx="200.0" cy="180.0" r="2.0" stroke="#0000b2" stroke-width="4.0" fill="#0000b2" />
<circle cx="220.0" cy="140.0" r="2.0" stroke="#b20000" stroke-width="4.0" fill="#b20000" />
</g>
<g>
<path d="M 261,36 L 299,45 L 299,75 L 261,84 Z" stroke="#000000" stroke-width="4.0" fill="none"/>
<text text-anchor="start" x="263.0" y="55.5" fill="#808080" style="font-size:18px">0</text>
<circle cx="280.0" cy="80.0" r="2.0" stroke="#0000b2" stroke-width="4.0" fill="#0000b2" />
<circle cx="260.0" cy="40.0" r="2.0" stroke="#0000b2" stroke-width="4.0" fill="#0000b2" />
<circle cx="260.0" cy="80.0" r="2.0" stroke="#0000b2" stroke-width="4.0" fill="#0000b2" />
<circle cx="300.0" cy="60.0" r="2.0" stroke="#b20000" stroke-width="4.0" fill="#b20000" />
</g>
<g>
<circle cx="916.0" cy="0.0" r="9.0" stroke="#000000" stroke-width="4.0" fill="none" />
<circle cx="916.0" cy="0.0" r="15.0" stroke="#000000" stroke-width="4.0" fill="none" />
<text text-anchor="start" x="945.0" y="9.0" fill="#000000" style="font-size:24px"><tspan style="font-style:italic;">aluOp</tspan></text>
<circle cx="900.0" cy="0.0" r="2.0" stroke="#0000b2" stroke-width="4.0" fill="#0000b2" />
</g>
<g>
<text text-anchor="end" x="498.0" y="-83.0" fill="#808080" style="font-size:12px">0</text>
<text text-anchor="end" x="498.0" y="-63.0" fill="#808080" style="font-size:12px">1</text>
<text text-anchor="end" x="498.0" y="-43.0" fill="#808080" style="font-size:12px">2</text>
<text text-anchor="end" x="498.0" y="-23.0" fill="#808080" style="font-size:12px">3</text>
<text text-anchor="start" x="522.0" y="-83.0" fill="#808080" style="font-size:12px">0-3</text>
<path d="M 508,-82 L 512,-82 L 512,-18 L 508,-18 Z" stroke="#000000" stroke-width="4.0" fill="#000000" fill-opacity="1.0"/>
<circle cx="500.0" cy="-80.0" r="2.0" stroke="#0000b2" stroke-width="4.0" fill="#0000b2" />
<circle cx="500.0" cy="-60.0" r="2.0" stroke="#0000b2" stroke-width="4.0" fill="#0000b2" />
<circle cx="500.0" cy="-40.0" r="2.0" stroke="#0000b2" stroke-width="4.0" fill="#0000b2" />
<circle cx="500.0" cy="-20.0" r="2.0" stroke="#0000b2" stroke-width="4.0" fill="#0000b2" />
<circle cx="520.0" cy="-80.0" r="2.0" stroke="#b20000" stroke-width="4.0" fill="#b20000" />
</g>
<g>
<circle cx="916.0" cy="-80.0" r="9.0" stroke="#000000" stroke-width="4.0" fill="none" />
<circle cx="916.0" cy="-80.0" r="15.0" stroke="#000000" stroke-width="4.0" fill="none" />
<text text-anchor="start" x="945.0" y="-71.0" fill="#000000" style="font-size:24px"><tspan style="font-style:italic;">cond</tspan></text>
<circle cx="900.0" cy="-80.0" r="2.0" stroke="#0000b2" stroke-width="4.0" fill="#0000b2" />
</g>
</g>
</svg>