<?xml version="1.0" encoding="UTF-8" standalone="no"?>
<!-- Created with Digital by H.Neemann -->
<!-- created: Thu Dec 14 12:42:07 BRT 2023 -->

<svg
   xmlns:svg="http://www.w3.org/2000/svg"
   xmlns="http://www.w3.org/2000/svg"
   width="122.4mm"
   height="77.4mm"
   viewBox="256 -464 816 516">
<g stroke-linecap="square">
<path d="M 700,-20 L 700,0 L 720,0 L 724,0" stroke="#0000b2" stroke-width="4.0" fill="none"/>
<path d="M 320,0 L 460,0" stroke="#0000b2" stroke-width="4.0" fill="none"/>
<path d="M 480,-260 L 720,-260 L 720,-220 L 820,-220" stroke="#0000b2" stroke-width="4.0" fill="none"/>
<path d="M 560,-420 L 600,-420 L 600,-440 L 660,-440" stroke="#0000b2" stroke-width="4.0" fill="none"/>
<path d="M 560,-360 L 660,-360 L 664,-360" stroke="#0000b2" stroke-width="4.0" fill="none"/>
<path d="M 620,-20 L 620,40 L 720,40 L 724,40" stroke="#0000b2" stroke-width="4.0" fill="none"/>
<path d="M 320,-140 L 460,-140" stroke="#0000b2" stroke-width="4.0" fill="none"/>
<path d="M 560,-300 L 660,-300" stroke="#0000b2" stroke-width="4.0" fill="none"/>
<path d="M 560,-400 L 620,-400 L 620,-420 L 660,-420" stroke="#0000b2" stroke-width="4.0" fill="none"/>
<path d="M 640,-120 L 640,-180 L 720,-180 L 720,-220" stroke="#0000b2" stroke-width="4.0" fill="none"/>
<path d="M 560,-340 L 660,-340" stroke="#0000b2" stroke-width="4.0" fill="none"/>
<path d="M 480,20 L 560,20 L 560,-160 L 620,-160 L 700,-160 L 700,-120" stroke="#0000b2" stroke-width="4.0" fill="none"/>
<path d="M 800,20 L 820,20" stroke="#0000b2" stroke-width="4.0" fill="none"/>
<path d="M 480,-120 L 600,-120 L 600,-140 L 680,-140 L 680,-120" stroke="#0000b2" stroke-width="4.0" fill="none"/>
<path d="M 320,-280 L 400,-280 L 460,-280" stroke="#0000b2" stroke-width="4.0" fill="none"/>
<path d="M 400,-280 L 400,-440 L 540,-440" stroke="#0000b2" stroke-width="4.0" fill="none"/>
<path d="M 560,-440 L 580,-440 L 580,-460 L 660,-460" stroke="#0000b2" stroke-width="4.0" fill="none"/>
<path d="M 740,-380 L 760,-380" stroke="#0000b2" stroke-width="4.0" fill="none"/>
<path d="M 800,-380 L 820,-380" stroke="#0000b2" stroke-width="4.0" fill="none"/>
<path d="M 560,-380 L 640,-380 L 640,-400 L 660,-400 L 664,-400" stroke="#0000b2" stroke-width="4.0" fill="none"/>
<path d="M 560,-320 L 660,-320" stroke="#0000b2" stroke-width="4.0" fill="none"/>
<path d="M 720,-180 L 720,-100" stroke="#0000b2" stroke-width="4.0" fill="none"/>
<path d="M 600,-120 L 600,-100" stroke="#0000b2" stroke-width="4.0" fill="none"/>
<path d="M 620,-160 L 620,-100" stroke="#0000b2" stroke-width="4.0" fill="none"/>
<path d="M 661,-460 L 661,-411" stroke="#000000" stroke-width="4.0" fill="none"/>
<path d="M 661,-300 L 661,-349" stroke="#000000" stroke-width="4.0" fill="none"/>
<path d="M 540,-440 L 550,-440 L 560,-440" stroke="#000000" stroke-width="4.0" fill="none"/>
<path d="M 560,-420 L 550,-420" stroke="#000000" stroke-width="4.0" fill="none"/>
<path d="M 560,-400 L 550,-400" stroke="#000000" stroke-width="4.0" fill="none"/>
<path d="M 560,-380 L 550,-380" stroke="#000000" stroke-width="4.0" fill="none"/>
<path d="M 560,-360 L 550,-360" stroke="#000000" stroke-width="4.0" fill="none"/>
<path d="M 560,-340 L 550,-340" stroke="#000000" stroke-width="4.0" fill="none"/>
<path d="M 560,-320 L 550,-320" stroke="#000000" stroke-width="4.0" fill="none"/>
<path d="M 560,-300 L 550,-300" stroke="#000000" stroke-width="4.0" fill="none"/>
<path d="M 460,-280 L 470,-280 L 480,-280" stroke="#000000" stroke-width="4.0" fill="none"/>
<path d="M 480,-260 L 470,-260" stroke="#000000" stroke-width="4.0" fill="none"/>
<path d="M 460,-140 L 470,-140 L 480,-140" stroke="#000000" stroke-width="4.0" fill="none"/>
<path d="M 480,-120 L 470,-120" stroke="#000000" stroke-width="4.0" fill="none"/>
<path d="M 460,0 L 470,0 L 480,0" stroke="#000000" stroke-width="4.0" fill="none"/>
<path d="M 480,20 L 470,20" stroke="#000000" stroke-width="4.0" fill="none"/>
<g>
<circle cx="720.0" cy="-180.0" r="4.0" stroke="#0000b2" stroke-width="4.0" fill="#0000b2" />
<circle cx="600.0" cy="-120.0" r="4.0" stroke="#0000b2" stroke-width="4.0" fill="#0000b2" />
<circle cx="400.0" cy="-280.0" r="4.0" stroke="#0000b2" stroke-width="4.0" fill="#0000b2" />
<circle cx="720.0" cy="-220.0" r="4.0" stroke="#0000b2" stroke-width="4.0" fill="#0000b2" />
<circle cx="620.0" cy="-160.0" r="4.0" stroke="#0000b2" stroke-width="4.0" fill="#0000b2" />
</g>
<g>
<path d="M 690,-350 L 660,-350 C 670,-366 670,-394 660,-410 L 680,-410 C 710,-410 730,-400 740,-380 C 730,-360 710,-350 690,-350 Z" stroke="#000000" stroke-width="4.0" fill="none"/>
<circle cx="660.0" cy="-460.0" r="2.0" stroke="#0000b2" stroke-width="4.0" fill="#0000b2" />
<circle cx="660.0" cy="-440.0" r="2.0" stroke="#0000b2" stroke-width="4.0" fill="#0000b2" />
<circle cx="660.0" cy="-420.0" r="2.0" stroke="#0000b2" stroke-width="4.0" fill="#0000b2" />
<circle cx="660.0" cy="-400.0" r="2.0" stroke="#0000b2" stroke-width="4.0" fill="#0000b2" />
<circle cx="660.0" cy="-360.0" r="2.0" stroke="#0000b2" stroke-width="4.0" fill="#0000b2" />
<circle cx="660.0" cy="-340.0" r="2.0" stroke="#0000b2" stroke-width="4.0" fill="#0000b2" />
<circle cx="660.0" cy="-320.0" r="2.0" stroke="#0000b2" stroke-width="4.0" fill="#0000b2" />
<circle cx="660.0" cy="-300.0" r="2.0" stroke="#0000b2" stroke-width="4.0" fill="#0000b2" />
<circle cx="740.0" cy="-380.0" r="2.0" stroke="#b20000" stroke-width="4.0" fill="#b20000" />
</g>
<g>
<text text-anchor="end" x="538.0" y="-443.0" fill="#808080" style="font-size:12px">0-7</text>
<text text-anchor="start" x="562.0" y="-443.0" fill="#808080" style="font-size:12px">0</text>
<text text-anchor="start" x="562.0" y="-423.0" fill="#808080" style="font-size:12px">1</text>
<text text-anchor="start" x="562.0" y="-403.0" fill="#808080" style="font-size:12px">2</text>
<text text-anchor="start" x="562.0" y="-383.0" fill="#808080" style="font-size:12px">3</text>
<text text-anchor="start" x="562.0" y="-363.0" fill="#808080" style="font-size:12px">4</text>
<text text-anchor="start" x="562.0" y="-343.0" fill="#808080" style="font-size:12px">5</text>
<text text-anchor="start" x="562.0" y="-323.0" fill="#808080" style="font-size:12px">6</text>
<text text-anchor="start" x="562.0" y="-303.0" fill="#808080" style="font-size:12px">7</text>
<path d="M 548,-442 L 552,-442 L 552,-298 L 548,-298 Z" stroke="#000000" stroke-width="4.0" fill="#000000" fill-opacity="1.0"/>
<circle cx="540.0" cy="-440.0" r="2.0" stroke="#0000b2" stroke-width="4.0" fill="#0000b2" />
<circle cx="560.0" cy="-440.0" r="2.0" stroke="#b20000" stroke-width="4.0" fill="#b20000" />
<circle cx="560.0" cy="-420.0" r="2.0" stroke="#b20000" stroke-width="4.0" fill="#b20000" />
<circle cx="560.0" cy="-400.0" r="2.0" stroke="#b20000" stroke-width="4.0" fill="#b20000" />
<circle cx="560.0" cy="-380.0" r="2.0" stroke="#b20000" stroke-width="4.0" fill="#b20000" />
<circle cx="560.0" cy="-360.0" r="2.0" stroke="#b20000" stroke-width="4.0" fill="#b20000" />
<circle cx="560.0" cy="-340.0" r="2.0" stroke="#b20000" stroke-width="4.0" fill="#b20000" />
<circle cx="560.0" cy="-320.0" r="2.0" stroke="#b20000" stroke-width="4.0" fill="#b20000" />
<circle cx="560.0" cy="-300.0" r="2.0" stroke="#b20000" stroke-width="4.0" fill="#b20000" />
</g>
<g>
<path d="M 761,-392 L 779,-380 L 761,-368 Z" stroke="#000000" stroke-width="4.0" fill="none"/>
<circle cx="790.0" cy="-380.0" r="9.0" stroke="#000000" stroke-width="4.0" fill="none" />
<circle cx="760.0" cy="-380.0" r="2.0" stroke="#0000b2" stroke-width="4.0" fill="#0000b2" />
<circle cx="800.0" cy="-380.0" r="2.0" stroke="#b20000" stroke-width="4.0" fill="#b20000" />
</g>
<g>
<circle cx="836.0" cy="-380.0" r="9.0" stroke="#000000" stroke-width="4.0" fill="none" />
<circle cx="836.0" cy="-380.0" r="15.0" stroke="#000000" stroke-width="4.0" fill="none" />
<text text-anchor="start" x="865.0" y="-371.0" fill="#000000" style="font-size:24px"><tspan style="font-style:italic;">Z</tspan></text>
<circle cx="820.0" cy="-380.0" r="2.0" stroke="#0000b2" stroke-width="4.0" fill="#0000b2" />
</g>
<g>
<circle cx="836.0" cy="-220.0" r="9.0" stroke="#000000" stroke-width="4.0" fill="none" />
<circle cx="836.0" cy="-220.0" r="15.0" stroke="#000000" stroke-width="4.0" fill="none" />
<text text-anchor="start" x="865.0" y="-211.0" fill="#000000" style="font-size:24px"><tspan style="font-style:italic;">N</tspan></text>
<circle cx="820.0" cy="-220.0" r="2.0" stroke="#0000b2" stroke-width="4.0" fill="#0000b2" />
</g>
<g>
<path d="M 590,-50 L 590,-99 L 650,-99 L 650,-50 C 650,-40 640,-20 620,-21 C 600,-21 590,-40 590,-50 Z" stroke="#000000" stroke-width="4.0" fill="none"/>
<circle cx="640.0" cy="-110.0" r="8.0" stroke="#000000" stroke-width="4.0" fill="none" />
<circle cx="640.0" cy="-120.0" r="2.0" stroke="#0000b2" stroke-width="4.0" fill="#0000b2" />
<circle cx="620.0" cy="-100.0" r="2.0" stroke="#0000b2" stroke-width="4.0" fill="#0000b2" />
<circle cx="600.0" cy="-100.0" r="2.0" stroke="#0000b2" stroke-width="4.0" fill="#0000b2" />
<circle cx="620.0" cy="-20.0" r="2.0" stroke="#b20000" stroke-width="4.0" fill="#b20000" />
</g>
<g>
<path d="M 670,-50 L 670,-99 L 730,-99 L 730,-50 C 730,-40 720,-20 700,-21 C 680,-21 670,-40 670,-50 Z" stroke="#000000" stroke-width="4.0" fill="none"/>
<circle cx="700.0" cy="-110.0" r="8.0" stroke="#000000" stroke-width="4.0" fill="none" />
<circle cx="680.0" cy="-110.0" r="8.0" stroke="#000000" stroke-width="4.0" fill="none" />
<circle cx="720.0" cy="-100.0" r="2.0" stroke="#0000b2" stroke-width="4.0" fill="#0000b2" />
<circle cx="700.0" cy="-120.0" r="2.0" stroke="#0000b2" stroke-width="4.0" fill="#0000b2" />
<circle cx="680.0" cy="-120.0" r="2.0" stroke="#0000b2" stroke-width="4.0" fill="#0000b2" />
<circle cx="700.0" cy="-20.0" r="2.0" stroke="#b20000" stroke-width="4.0" fill="#b20000" />
</g>
<g>
<path d="M 750,50 L 720,50 C 730,34 730,6 720,-10 L 740,-10 C 770,-10 790,0 800,20 C 790,40 770,50 750,50 Z" stroke="#000000" stroke-width="4.0" fill="none"/>
<circle cx="720.0" cy="0.0" r="2.0" stroke="#0000b2" stroke-width="4.0" fill="#0000b2" />
<circle cx="720.0" cy="40.0" r="2.0" stroke="#0000b2" stroke-width="4.0" fill="#0000b2" />
<circle cx="800.0" cy="20.0" r="2.0" stroke="#b20000" stroke-width="4.0" fill="#b20000" />
</g>
<g>
<circle cx="836.0" cy="20.0" r="9.0" stroke="#000000" stroke-width="4.0" fill="none" />
<circle cx="836.0" cy="20.0" r="15.0" stroke="#000000" stroke-width="4.0" fill="none" />
<text text-anchor="start" x="865.0" y="29.0" fill="#000000" style="font-size:24px"><tspan style="font-style:italic;">V</tspan></text>
<circle cx="820.0" cy="20.0" r="2.0" stroke="#0000b2" stroke-width="4.0" fill="#0000b2" />
</g>
<g>
<path d="M 289,-295 L 319,-295 L 319,-265 L 289,-265 Z" stroke="#000000" stroke-width="4.0" fill="none"/>
<circle cx="304.0" cy="-280.0" r="9.0" stroke="#000000" stroke-width="4.0" fill="none" />
<text text-anchor="end" x="275.0" y="-271.0" fill="#000000" style="font-size:24px"><tspan style="font-style:italic;">R</tspan></text>
<circle cx="320.0" cy="-280.0" r="2.0" stroke="#b20000" stroke-width="4.0" fill="#b20000" />
</g>
<g>
<path d="M 289,-155 L 319,-155 L 319,-125 L 289,-125 Z" stroke="#000000" stroke-width="4.0" fill="none"/>
<circle cx="304.0" cy="-140.0" r="9.0" stroke="#000000" stroke-width="4.0" fill="none" />
<text text-anchor="end" x="275.0" y="-131.0" fill="#000000" style="font-size:24px"><tspan style="font-style:italic;">A</tspan></text>
<circle cx="320.0" cy="-140.0" r="2.0" stroke="#b20000" stroke-width="4.0" fill="#b20000" />
</g>
<g>
<path d="M 289,-15 L 319,-15 L 319,15 L 289,15 Z" stroke="#000000" stroke-width="4.0" fill="none"/>
<circle cx="304.0" cy="0.0" r="9.0" stroke="#000000" stroke-width="4.0" fill="none" />
<text text-anchor="end" x="275.0" y="9.0" fill="#000000" style="font-size:24px"><tspan style="font-style:italic;">B</tspan></text>
<circle cx="320.0" cy="0.0" r="2.0" stroke="#b20000" stroke-width="4.0" fill="#b20000" />
</g>
<g>
<text text-anchor="end" x="458.0" y="-283.0" fill="#808080" style="font-size:12px">0-7</text>
<text text-anchor="start" x="482.0" y="-283.0" fill="#808080" style="font-size:12px">0-6</text>
<text text-anchor="start" x="482.0" y="-263.0" fill="#808080" style="font-size:12px">7</text>
<path d="M 468,-282 L 472,-282 L 472,-258 L 468,-258 Z" stroke="#000000" stroke-width="4.0" fill="#000000" fill-opacity="1.0"/>
<circle cx="460.0" cy="-280.0" r="2.0" stroke="#0000b2" stroke-width="4.0" fill="#0000b2" />
<circle cx="480.0" cy="-280.0" r="2.0" stroke="#b20000" stroke-width="4.0" fill="#b20000" />
<circle cx="480.0" cy="-260.0" r="2.0" stroke="#b20000" stroke-width="4.0" fill="#b20000" />
</g>
<g>
<text text-anchor="end" x="458.0" y="-143.0" fill="#808080" style="font-size:12px">0-7</text>
<text text-anchor="start" x="482.0" y="-143.0" fill="#808080" style="font-size:12px">0-6</text>
<text text-anchor="start" x="482.0" y="-123.0" fill="#808080" style="font-size:12px">7</text>
<path d="M 468,-142 L 472,-142 L 472,-118 L 468,-118 Z" stroke="#000000" stroke-width="4.0" fill="#000000" fill-opacity="1.0"/>
<circle cx="460.0" cy="-140.0" r="2.0" stroke="#0000b2" stroke-width="4.0" fill="#0000b2" />
<circle cx="480.0" cy="-140.0" r="2.0" stroke="#b20000" stroke-width="4.0" fill="#b20000" />
<circle cx="480.0" cy="-120.0" r="2.0" stroke="#b20000" stroke-width="4.0" fill="#b20000" />
</g>
<g>
<text text-anchor="end" x="458.0" y="-3.0" fill="#808080" style="font-size:12px">0-7</text>
<text text-anchor="start" x="482.0" y="-3.0" fill="#808080" style="font-size:12px">0-6</text>
<text text-anchor="start" x="482.0" y="17.0" fill="#808080" style="font-size:12px">7</text>
<path d="M 468,-2 L 472,-2 L 472,22 L 468,22 Z" stroke="#000000" stroke-width="4.0" fill="#000000" fill-opacity="1.0"/>
<circle cx="460.0" cy="0.0" r="2.0" stroke="#0000b2" stroke-width="4.0" fill="#0000b2" />
<circle cx="480.0" cy="0.0" r="2.0" stroke="#b20000" stroke-width="4.0" fill="#b20000" />
<circle cx="480.0" cy="20.0" r="2.0" stroke="#b20000" stroke-width="4.0" fill="#b20000" />
</g>
<g>
<path d="M 990,-410 L 1070,-410 L 1070,-370 L 990,-370 Z" stroke="#b4ffb4" stroke-width="0.0" fill="#b4ffb4" fill-opacity="0.7843137254901961"/>
<path d="M 990,-410 L 1070,-410 L 1070,-370 L 990,-370 Z" stroke="#000000" stroke-width="2.0" fill="none"/>
<text text-anchor="middle" x="1030.0" y="-381.0" fill="#000000" style="font-size:24px">Test</text>
<text text-anchor="middle" x="1030.0" y="-420.0" fill="#000000" style="font-size:24px">z</text>
</g>
<g>
<path d="M 990,-330 L 1070,-330 L 1070,-290 L 990,-290 Z" stroke="#b4ffb4" stroke-width="0.0" fill="#b4ffb4" fill-opacity="0.7843137254901961"/>
<path d="M 990,-330 L 1070,-330 L 1070,-290 L 990,-290 Z" stroke="#000000" stroke-width="2.0" fill="none"/>
<text text-anchor="middle" x="1030.0" y="-301.0" fill="#000000" style="font-size:24px">Test</text>
<text text-anchor="middle" x="1030.0" y="-340.0" fill="#000000" style="font-size:24px">n</text>
</g>
<g>
<path d="M 990,-250 L 1070,-250 L 1070,-210 L 990,-210 Z" stroke="#b4ffb4" stroke-width="0.0" fill="#b4ffb4" fill-opacity="0.7843137254901961"/>
<path d="M 990,-250 L 1070,-250 L 1070,-210 L 990,-210 Z" stroke="#000000" stroke-width="2.0" fill="none"/>
<text text-anchor="middle" x="1030.0" y="-221.0" fill="#000000" style="font-size:24px">Test</text>
<text text-anchor="middle" x="1030.0" y="-260.0" fill="#000000" style="font-size:24px">v</text>
</g>
</g>
</svg>