<?xml version="1.0" encoding="UTF-8" standalone="no"?>
<!-- Created with Digital by H.Neemann -->
<!-- created: Fri Dec 29 23:21:01 BRT 2023 -->

<svg
   xmlns:svg="http://www.w3.org/2000/svg"
   xmlns="http://www.w3.org/2000/svg"
   width="188.4mm"
   height="137.1mm"
   viewBox="521 -437 1256 914">
<g stroke-linecap="square">
<path d="M 840,-180 L 850,-180 L 860,-180" stroke="#000000" stroke-width="4.0" fill="none"/>
<path d="M 860,-160 L 850,-160" stroke="#000000" stroke-width="4.0" fill="none"/>
<path d="M 860,-140 L 850,-140" stroke="#000000" stroke-width="4.0" fill="none"/>
<path d="M 860,-120 L 850,-120" stroke="#000000" stroke-width="4.0" fill="none"/>
<path d="M 1160,-200 L 1170,-200 L 1180,-200" stroke="#000000" stroke-width="4.0" fill="none"/>
<path d="M 1160,-180 L 1170,-180" stroke="#000000" stroke-width="4.0" fill="none"/>
<path d="M 720,-360 L 730,-360 L 740,-360" stroke="#000000" stroke-width="4.0" fill="none"/>
<path d="M 720,-340 L 730,-340" stroke="#000000" stroke-width="4.0" fill="none"/>
<path d="M 940,-240 L 940,-250 L 940,-260" stroke="#000000" stroke-width="4.0" fill="none"/>
<path d="M 920,-240 L 920,-250" stroke="#000000" stroke-width="4.0" fill="none"/>
<path d="M 900,-240 L 900,-250" stroke="#000000" stroke-width="4.0" fill="none"/>
<path d="M 880,-240 L 880,-250" stroke="#000000" stroke-width="4.0" fill="none"/>
<path d="M 1000,-100 L 1020,-100 L 1040,-100 L 1044,-100" stroke="#0000b2" stroke-width="4.0" fill="none"/>
<path d="M 660,-420 L 1140,-420 L 1140,-340 L 1180,-340" stroke="#0000b2" stroke-width="4.0" fill="none"/>
<path d="M 820,-260 L 840,-260 L 840,-220 L 900,-220 L 900,-240" stroke="#0000b2" stroke-width="4.0" fill="none"/>
<path d="M 1120,-200 L 1160,-200" stroke="#0000b2" stroke-width="4.0" fill="none"/>
<path d="M 1180,-200 L 1200,-200 L 1200,-260" stroke="#0000b2" stroke-width="4.0" fill="none"/>
<path d="M 660,-360 L 720,-360" stroke="#0000b2" stroke-width="4.0" fill="none"/>
<path d="M 740,-360 L 1100,-360 L 1100,-320 L 1180,-320" stroke="#0000b2" stroke-width="4.0" fill="none"/>
<path d="M 1220,-300 L 1580,-300 L 1580,-60 L 1660,-60" stroke="#0000b2" stroke-width="4.0" fill="none"/>
<path d="M 880,-120 L 880,-80 L 920,-80 L 924,-80" stroke="#0000b2" stroke-width="4.0" fill="none"/>
<path d="M 660,-80 L 700,-80 L 700,-180 L 840,-180" stroke="#0000b2" stroke-width="4.0" fill="none"/>
<path d="M 1020,-100 L 1020,-180 L 1040,-180 L 1044,-180" stroke="#0000b2" stroke-width="4.0" fill="none"/>
<path d="M 860,-180 L 940,-180 L 940,-220" stroke="#0000b2" stroke-width="4.0" fill="none"/>
<path d="M 700,-340 L 720,-340" stroke="#0000b2" stroke-width="4.0" fill="none"/>
<path d="M 900,-140 L 900,-120 L 920,-120 L 924,-120" stroke="#0000b2" stroke-width="4.0" fill="none"/>
<path d="M 860,-120 L 880,-120 L 880,-240" stroke="#0000b2" stroke-width="4.0" fill="none"/>
<path d="M 1120,-120 L 1140,-120 L 1140,-180 L 1160,-180" stroke="#0000b2" stroke-width="4.0" fill="none"/>
<path d="M 940,-260 L 940,-280 L 1180,-280" stroke="#0000b2" stroke-width="4.0" fill="none"/>
<path d="M 940,-240 L 940,-220 L 1040,-220 L 1044,-220" stroke="#0000b2" stroke-width="4.0" fill="none"/>
<path d="M 860,-160 L 920,-160 L 980,-160 L 980,-140 L 1040,-140 L 1044,-140" stroke="#0000b2" stroke-width="4.0" fill="none"/>
<path d="M 860,-140 L 900,-140 L 900,-200 L 720,-200 L 720,-240 L 740,-240 L 754,-240" stroke="#0000b2" stroke-width="4.0" fill="none"/>
<path d="M 920,-240 L 920,-160" stroke="#0000b2" stroke-width="4.0" fill="none"/>
<path d="M 740,-280 L 754,-280" stroke="#0000b2" stroke-width="4.0" fill="none"/>
<g>
<circle cx="1020.0" cy="-100.0" r="4.0" stroke="#0000b2" stroke-width="4.0" fill="#0000b2" />
<circle cx="900.0" cy="-140.0" r="4.0" stroke="#0000b2" stroke-width="4.0" fill="#0000b2" />
<circle cx="880.0" cy="-120.0" r="4.0" stroke="#0000b2" stroke-width="4.0" fill="#0000b2" />
<circle cx="940.0" cy="-220.0" r="4.0" stroke="#0000b2" stroke-width="4.0" fill="#0000b2" />
<circle cx="920.0" cy="-160.0" r="4.0" stroke="#0000b2" stroke-width="4.0" fill="#0000b2" />
</g>
<g>
<circle cx="1676.0" cy="-60.0" r="9.0" stroke="#000000" stroke-width="4.0" fill="none" />
<circle cx="1676.0" cy="-60.0" r="15.0" stroke="#000000" stroke-width="4.0" fill="none" />
<text text-anchor="start" x="1705.0" y="-51.0" fill="#000000" style="font-size:24px"><tspan style="font-style:italic;">wAd</tspan></text>
<circle cx="1660.0" cy="-60.0" r="2.0" stroke="#0000b2" stroke-width="4.0" fill="#0000b2" />
</g>
<g>
<circle cx="1676.0" cy="-20.0" r="9.0" stroke="#000000" stroke-width="4.0" fill="none" />
<circle cx="1676.0" cy="-20.0" r="15.0" stroke="#000000" stroke-width="4.0" fill="none" />
<text text-anchor="start" x="1705.0" y="-11.0" fill="#000000" style="font-size:24px"><tspan style="font-style:italic;">aAd</tspan></text>
<circle cx="1660.0" cy="-20.0" r="2.0" stroke="#0000b2" stroke-width="4.0" fill="#0000b2" />
</g>
<g>
<circle cx="1676.0" cy="20.0" r="9.0" stroke="#000000" stroke-width="4.0" fill="none" />
<circle cx="1676.0" cy="20.0" r="15.0" stroke="#000000" stroke-width="4.0" fill="none" />
<text text-anchor="start" x="1705.0" y="29.0" fill="#000000" style="font-size:24px"><tspan style="font-style:italic;">bAd</tspan></text>
<circle cx="1660.0" cy="20.0" r="2.0" stroke="#0000b2" stroke-width="4.0" fill="#0000b2" />
</g>
<g>
<circle cx="1676.0" cy="80.0" r="9.0" stroke="#000000" stroke-width="4.0" fill="none" />
<circle cx="1676.0" cy="80.0" r="15.0" stroke="#000000" stroke-width="4.0" fill="none" />
<text text-anchor="start" x="1705.0" y="89.0" fill="#000000" style="font-size:24px"><tspan style="font-style:italic;">bSel</tspan></text>
<circle cx="1660.0" cy="80.0" r="2.0" stroke="#0000b2" stroke-width="4.0" fill="#0000b2" />
</g>
<g>
<circle cx="1676.0" cy="120.0" r="9.0" stroke="#000000" stroke-width="4.0" fill="none" />
<circle cx="1676.0" cy="120.0" r="15.0" stroke="#000000" stroke-width="4.0" fill="none" />
<text text-anchor="start" x="1705.0" y="129.0" fill="#000000" style="font-size:24px"><tspan style="font-style:italic;">logSel</tspan></text>
<circle cx="1660.0" cy="120.0" r="2.0" stroke="#0000b2" stroke-width="4.0" fill="#0000b2" />
</g>
<g>
<circle cx="1676.0" cy="160.0" r="9.0" stroke="#000000" stroke-width="4.0" fill="none" />
<circle cx="1676.0" cy="160.0" r="15.0" stroke="#000000" stroke-width="4.0" fill="none" />
<text text-anchor="start" x="1705.0" y="169.0" fill="#000000" style="font-size:24px"><tspan style="font-style:italic;">aSel</tspan></text>
<circle cx="1660.0" cy="160.0" r="2.0" stroke="#0000b2" stroke-width="4.0" fill="#0000b2" />
</g>
<g>
<circle cx="1676.0" cy="220.0" r="9.0" stroke="#000000" stroke-width="4.0" fill="none" />
<circle cx="1676.0" cy="220.0" r="15.0" stroke="#000000" stroke-width="4.0" fill="none" />
<text text-anchor="start" x="1705.0" y="229.0" fill="#000000" style="font-size:24px"><tspan style="font-style:italic;">Cin</tspan></text>
<circle cx="1660.0" cy="220.0" r="2.0" stroke="#0000b2" stroke-width="4.0" fill="#0000b2" />
</g>
<g>
<circle cx="1676.0" cy="340.0" r="9.0" stroke="#000000" stroke-width="4.0" fill="none" />
<circle cx="1676.0" cy="340.0" r="15.0" stroke="#000000" stroke-width="4.0" fill="none" />
<text text-anchor="start" x="1705.0" y="349.0" fill="#000000" style="font-size:24px"><tspan style="font-style:italic;">out3</tspan></text>
<circle cx="1660.0" cy="340.0" r="2.0" stroke="#0000b2" stroke-width="4.0" fill="#0000b2" />
</g>
<g>
<circle cx="1676.0" cy="380.0" r="9.0" stroke="#000000" stroke-width="4.0" fill="none" />
<circle cx="1676.0" cy="380.0" r="15.0" stroke="#000000" stroke-width="4.0" fill="none" />
<text text-anchor="start" x="1705.0" y="389.0" fill="#000000" style="font-size:24px"><tspan style="font-style:italic;">out2</tspan></text>
<circle cx="1660.0" cy="380.0" r="2.0" stroke="#0000b2" stroke-width="4.0" fill="#0000b2" />
</g>
<g>
<circle cx="1676.0" cy="420.0" r="9.0" stroke="#000000" stroke-width="4.0" fill="none" />
<circle cx="1676.0" cy="420.0" r="15.0" stroke="#000000" stroke-width="4.0" fill="none" />
<text text-anchor="start" x="1705.0" y="429.0" fill="#000000" style="font-size:24px"><tspan style="font-style:italic;">out1</tspan></text>
<circle cx="1660.0" cy="420.0" r="2.0" stroke="#0000b2" stroke-width="4.0" fill="#0000b2" />
</g>
<g>
<circle cx="1676.0" cy="460.0" r="9.0" stroke="#000000" stroke-width="4.0" fill="none" />
<circle cx="1676.0" cy="460.0" r="15.0" stroke="#000000" stroke-width="4.0" fill="none" />
<text text-anchor="start" x="1705.0" y="469.0" fill="#000000" style="font-size:24px"><tspan style="font-style:italic;">out0</tspan></text>
<circle cx="1660.0" cy="460.0" r="2.0" stroke="#0000b2" stroke-width="4.0" fill="#0000b2" />
</g>
<g>
<path d="M 629,-95 L 659,-95 L 659,-65 L 629,-65 Z" stroke="#000000" stroke-width="4.0" fill="none"/>
<circle cx="644.0" cy="-80.0" r="9.0" stroke="#000000" stroke-width="4.0" fill="none" />
<text text-anchor="end" x="615.0" y="-71.0" fill="#000000" style="font-size:24px"><tspan style="font-style:italic;">wAdIn</tspan></text>
<circle cx="660.0" cy="-80.0" r="2.0" stroke="#b20000" stroke-width="4.0" fill="#b20000" />
</g>
<g>
<path d="M 629,-35 L 659,-35 L 659,-5 L 629,-5 Z" stroke="#000000" stroke-width="4.0" fill="none"/>
<circle cx="644.0" cy="-20.0" r="9.0" stroke="#000000" stroke-width="4.0" fill="none" />
<text text-anchor="end" x="615.0" y="-11.0" fill="#000000" style="font-size:24px"><tspan style="font-style:italic;">aAdIn</tspan></text>
<circle cx="660.0" cy="-20.0" r="2.0" stroke="#b20000" stroke-width="4.0" fill="#b20000" />
</g>
<g>
<path d="M 629,25 L 659,25 L 659,55 L 629,55 Z" stroke="#000000" stroke-width="4.0" fill="none"/>
<circle cx="644.0" cy="40.0" r="9.0" stroke="#000000" stroke-width="4.0" fill="none" />
<text text-anchor="end" x="615.0" y="49.0" fill="#000000" style="font-size:24px"><tspan style="font-style:italic;">bAdIn</tspan></text>
<circle cx="660.0" cy="40.0" r="2.0" stroke="#b20000" stroke-width="4.0" fill="#b20000" />
</g>
<g>
<path d="M 629,125 L 659,125 L 659,155 L 629,155 Z" stroke="#000000" stroke-width="4.0" fill="none"/>
<circle cx="644.0" cy="140.0" r="9.0" stroke="#000000" stroke-width="4.0" fill="none" />
<text text-anchor="end" x="615.0" y="149.0" fill="#000000" style="font-size:24px"><tspan style="font-style:italic;">bSelfIn</tspan></text>
<circle cx="660.0" cy="140.0" r="2.0" stroke="#b20000" stroke-width="4.0" fill="#b20000" />
</g>
<g>
<path d="M 629,185 L 659,185 L 659,215 L 629,215 Z" stroke="#000000" stroke-width="4.0" fill="none"/>
<circle cx="644.0" cy="200.0" r="9.0" stroke="#000000" stroke-width="4.0" fill="none" />
<text text-anchor="end" x="615.0" y="209.0" fill="#000000" style="font-size:24px"><tspan style="font-style:italic;">logSelIn</tspan></text>
<circle cx="660.0" cy="200.0" r="2.0" stroke="#b20000" stroke-width="4.0" fill="#b20000" />
</g>
<g>
<path d="M 629,245 L 659,245 L 659,275 L 629,275 Z" stroke="#000000" stroke-width="4.0" fill="none"/>
<circle cx="644.0" cy="260.0" r="9.0" stroke="#000000" stroke-width="4.0" fill="none" />
<text text-anchor="end" x="615.0" y="269.0" fill="#000000" style="font-size:24px"><tspan style="font-style:italic;">aSelIn</tspan></text>
<circle cx="660.0" cy="260.0" r="2.0" stroke="#b20000" stroke-width="4.0" fill="#b20000" />
</g>
<g>
<path d="M 629,325 L 659,325 L 659,355 L 629,355 Z" stroke="#000000" stroke-width="4.0" fill="none"/>
<circle cx="644.0" cy="340.0" r="9.0" stroke="#000000" stroke-width="4.0" fill="none" />
<text text-anchor="end" x="615.0" y="349.0" fill="#000000" style="font-size:24px"><tspan style="font-style:italic;">CinIn</tspan></text>
<circle cx="660.0" cy="340.0" r="2.0" stroke="#b20000" stroke-width="4.0" fill="#b20000" />
</g>
<g>
<text text-anchor="end" x="838.0" y="-183.0" fill="#808080" style="font-size:12px">0-3</text>
<text text-anchor="start" x="862.0" y="-183.0" fill="#808080" style="font-size:12px">0</text>
<text text-anchor="start" x="862.0" y="-163.0" fill="#808080" style="font-size:12px">1</text>
<text text-anchor="start" x="862.0" y="-143.0" fill="#808080" style="font-size:12px">2</text>
<text text-anchor="start" x="862.0" y="-123.0" fill="#808080" style="font-size:12px">3</text>
<path d="M 848,-182 L 852,-182 L 852,-118 L 848,-118 Z" stroke="#000000" stroke-width="4.0" fill="#000000" fill-opacity="1.0"/>
<circle cx="840.0" cy="-180.0" r="2.0" stroke="#0000b2" stroke-width="4.0" fill="#0000b2" />
<circle cx="860.0" cy="-180.0" r="2.0" stroke="#b20000" stroke-width="4.0" fill="#b20000" />
<circle cx="860.0" cy="-160.0" r="2.0" stroke="#b20000" stroke-width="4.0" fill="#b20000" />
<circle cx="860.0" cy="-140.0" r="2.0" stroke="#b20000" stroke-width="4.0" fill="#b20000" />
<circle cx="860.0" cy="-120.0" r="2.0" stroke="#b20000" stroke-width="4.0" fill="#b20000" />
</g>
<g>
<path d="M 950,-70 L 920,-70 C 930,-86 930,-114 920,-130 L 940,-130 C 970,-130 990,-120 1000,-100 C 990,-80 970,-70 950,-70 Z" stroke="#000000" stroke-width="4.0" fill="none"/>
<circle cx="920.0" cy="-120.0" r="2.0" stroke="#0000b2" stroke-width="4.0" fill="#0000b2" />
<circle cx="920.0" cy="-80.0" r="2.0" stroke="#0000b2" stroke-width="4.0" fill="#0000b2" />
<circle cx="1000.0" cy="-100.0" r="2.0" stroke="#b20000" stroke-width="4.0" fill="#b20000" />
</g>
<g>
<path d="M 1070,-170 L 1040,-170 C 1050,-186 1050,-214 1040,-230 L 1060,-230 C 1090,-230 1110,-220 1120,-200 C 1110,-180 1090,-170 1070,-170 Z" stroke="#000000" stroke-width="4.0" fill="none"/>
<circle cx="1040.0" cy="-220.0" r="2.0" stroke="#0000b2" stroke-width="4.0" fill="#0000b2" />
<circle cx="1040.0" cy="-180.0" r="2.0" stroke="#0000b2" stroke-width="4.0" fill="#0000b2" />
<circle cx="1120.0" cy="-200.0" r="2.0" stroke="#b20000" stroke-width="4.0" fill="#b20000" />
</g>
<g>
<path d="M 1070,-90 L 1040,-90 C 1050,-106 1050,-134 1040,-150 L 1060,-150 C 1090,-150 1110,-140 1120,-120 C 1110,-100 1090,-90 1070,-90 Z" stroke="#000000" stroke-width="4.0" fill="none"/>
<circle cx="1040.0" cy="-140.0" r="2.0" stroke="#0000b2" stroke-width="4.0" fill="#0000b2" />
<circle cx="1040.0" cy="-100.0" r="2.0" stroke="#0000b2" stroke-width="4.0" fill="#0000b2" />
<circle cx="1120.0" cy="-120.0" r="2.0" stroke="#b20000" stroke-width="4.0" fill="#b20000" />
</g>
<g>
<text text-anchor="end" x="1158.0" y="-203.0" fill="#808080" style="font-size:12px">0</text>
<text text-anchor="end" x="1158.0" y="-183.0" fill="#808080" style="font-size:12px">1</text>
<text text-anchor="start" x="1182.0" y="-203.0" fill="#808080" style="font-size:12px">0,1</text>
<path d="M 1168,-202 L 1172,-202 L 1172,-178 L 1168,-178 Z" stroke="#000000" stroke-width="4.0" fill="#000000" fill-opacity="1.0"/>
<circle cx="1160.0" cy="-200.0" r="2.0" stroke="#0000b2" stroke-width="4.0" fill="#0000b2" />
<circle cx="1160.0" cy="-180.0" r="2.0" stroke="#0000b2" stroke-width="4.0" fill="#0000b2" />
<circle cx="1180.0" cy="-200.0" r="2.0" stroke="#b20000" stroke-width="4.0" fill="#b20000" />
</g>
<g>
<path d="M 1181,-344 L 1219,-335 L 1219,-265 L 1181,-256 Z" stroke="#000000" stroke-width="4.0" fill="none"/>
<text text-anchor="start" x="1183.0" y="-324.5" fill="#808080" style="font-size:18px">0</text>
<circle cx="1200.0" cy="-260.0" r="2.0" stroke="#0000b2" stroke-width="4.0" fill="#0000b2" />
<circle cx="1180.0" cy="-340.0" r="2.0" stroke="#0000b2" stroke-width="4.0" fill="#0000b2" />
<circle cx="1180.0" cy="-320.0" r="2.0" stroke="#0000b2" stroke-width="4.0" fill="#0000b2" />
<circle cx="1180.0" cy="-300.0" r="2.0" stroke="#0000b2" stroke-width="4.0" fill="#0000b2" />
<circle cx="1180.0" cy="-280.0" r="2.0" stroke="#0000b2" stroke-width="4.0" fill="#0000b2" />
<circle cx="1220.0" cy="-300.0" r="2.0" stroke="#b20000" stroke-width="4.0" fill="#b20000" />
</g>
<g>
<path d="M 629,-435 L 659,-435 L 659,-405 L 629,-405 Z" stroke="#000000" stroke-width="4.0" fill="none"/>
<circle cx="644.0" cy="-420.0" r="9.0" stroke="#000000" stroke-width="4.0" fill="none" />
<text text-anchor="end" x="615.0" y="-411.0" fill="#000000" style="font-size:24px"><tspan style="font-style:italic;">reg</tspan></text>
<circle cx="660.0" cy="-420.0" r="2.0" stroke="#b20000" stroke-width="4.0" fill="#b20000" />
</g>
<g>
<path d="M 629,-375 L 659,-375 L 659,-345 L 629,-345 Z" stroke="#000000" stroke-width="4.0" fill="none"/>
<circle cx="644.0" cy="-360.0" r="9.0" stroke="#000000" stroke-width="4.0" fill="none" />
<text text-anchor="end" x="615.0" y="-351.0" fill="#000000" style="font-size:24px"><tspan style="font-style:italic;">svD</tspan></text>
<circle cx="660.0" cy="-360.0" r="2.0" stroke="#b20000" stroke-width="4.0" fill="#b20000" />
</g>
<g>
<text text-anchor="end" x="718.0" y="-363.0" fill="#808080" style="font-size:12px">0,1</text>
<text text-anchor="end" x="718.0" y="-343.0" fill="#808080" style="font-size:12px">2,3</text>
<text text-anchor="start" x="742.0" y="-363.0" fill="#808080" style="font-size:12px">0-3</text>
<path d="M 728,-362 L 732,-362 L 732,-338 L 728,-338 Z" stroke="#000000" stroke-width="4.0" fill="#000000" fill-opacity="1.0"/>
<circle cx="720.0" cy="-360.0" r="2.0" stroke="#0000b2" stroke-width="4.0" fill="#0000b2" />
<circle cx="720.0" cy="-340.0" r="2.0" stroke="#0000b2" stroke-width="4.0" fill="#0000b2" />
<circle cx="740.0" cy="-360.0" r="2.0" stroke="#b20000" stroke-width="4.0" fill="#b20000" />
</g>
<g>
<text text-anchor="end" x="697.0" y="-331.0" fill="#000000" style="font-size:24px">0</text>
<circle cx="700.0" cy="-340.0" r="2.0" stroke="#b20000" stroke-width="4.0" fill="#b20000" />
</g>
<g>
<text text-anchor="end" x="943.0" y="-229.0" fill="#808080" style="font-size:12px" transform="rotate(-90,943.0,-238.0)" >0</text>
<text text-anchor="end" x="923.0" y="-229.0" fill="#808080" style="font-size:12px" transform="rotate(-90,923.0,-238.0)" >1</text>
<text text-anchor="end" x="903.0" y="-229.0" fill="#808080" style="font-size:12px" transform="rotate(-90,903.0,-238.0)" >2</text>
<text text-anchor="end" x="883.0" y="-229.0" fill="#808080" style="font-size:12px" transform="rotate(-90,883.0,-238.0)" >3</text>
<text text-anchor="start" x="943.0" y="-253.0" fill="#808080" style="font-size:12px" transform="rotate(-90,943.0,-262.0)" >0-3</text>
<path d="M 942,-248 L 942,-252 L 878,-252 L 878,-248 Z" stroke="#000000" stroke-width="4.0" fill="#000000" fill-opacity="1.0"/>
<circle cx="940.0" cy="-240.0" r="2.0" stroke="#0000b2" stroke-width="4.0" fill="#0000b2" />
<circle cx="920.0" cy="-240.0" r="2.0" stroke="#0000b2" stroke-width="4.0" fill="#0000b2" />
<circle cx="900.0" cy="-240.0" r="2.0" stroke="#0000b2" stroke-width="4.0" fill="#0000b2" />
<circle cx="880.0" cy="-240.0" r="2.0" stroke="#0000b2" stroke-width="4.0" fill="#0000b2" />
<circle cx="940.0" cy="-260.0" r="2.0" stroke="#b20000" stroke-width="4.0" fill="#b20000" />
</g>
<g>
<path d="M 770,-230 L 750,-230 C 760,-246 760,-274 750,-290 L 770,-290 C 790,-290 810,-280 820,-260 C 810,-240 790,-230 770,-230 Z" stroke="#000000" stroke-width="4.0" fill="none"/>
<path d="M 740,-230 C 750,-240 750,-280 740,-290" stroke="#000000" stroke-width="4.0" fill="none"/>
<circle cx="740.0" cy="-280.0" r="2.0" stroke="#0000b2" stroke-width="4.0" fill="#0000b2" />
<circle cx="740.0" cy="-240.0" r="2.0" stroke="#0000b2" stroke-width="4.0" fill="#0000b2" />
<circle cx="820.0" cy="-260.0" r="2.0" stroke="#b20000" stroke-width="4.0" fill="#b20000" />
</g>
</g>
</svg>