<?xml version="1.0" encoding="UTF-8" standalone="no"?>
<!-- Created with Digital by H.Neemann -->
<!-- created: Mon Oct 09 18:55:35 BRT 2023 -->

<svg
   xmlns:svg="http://www.w3.org/2000/svg"
   xmlns="http://www.w3.org/2000/svg"
   width="85.05mm"
   height="68.1mm"
   viewBox="417 223 567 454">
<g stroke-linecap="square">
<path d="M 860,420 L 920,420" stroke="#0000b2" stroke-width="4.0" fill="none"/>
<path d="M 740,460 L 760,460 L 760,400 L 820,400" stroke="#0000b2" stroke-width="4.0" fill="none"/>
<path d="M 480,620 L 600,620 L 800,620 L 800,440 L 820,440" stroke="#0000b2" stroke-width="4.0" fill="none"/>
<path d="M 600,480 L 600,560 L 660,560 L 674,560" stroke="#0000b2" stroke-width="4.0" fill="none"/>
<path d="M 480,240 L 620,240 L 620,360 L 660,360" stroke="#0000b2" stroke-width="4.0" fill="none"/>
<path d="M 800,660 L 840,660 L 840,460" stroke="#0000b2" stroke-width="4.0" fill="none"/>
<path d="M 740,540 L 780,540 L 780,420 L 820,420" stroke="#0000b2" stroke-width="4.0" fill="none"/>
<path d="M 740,380 L 820,380" stroke="#0000b2" stroke-width="4.0" fill="none"/>
<path d="M 664,480 L 660,480 L 600,480 L 600,400 L 660,400" stroke="#0000b2" stroke-width="4.0" fill="none"/>
<path d="M 600,560 L 600,620" stroke="#0000b2" stroke-width="4.0" fill="none"/>
<path d="M 674,520 L 660,520 L 620,520 L 620,440 L 660,440 L 664,440" stroke="#0000b2" stroke-width="4.0" fill="none"/>
<path d="M 620,360 L 620,440" stroke="#0000b2" stroke-width="4.0" fill="none"/>
<g>
<circle cx="600.0" cy="480.0" r="4.0" stroke="#0000b2" stroke-width="4.0" fill="#0000b2" />
<circle cx="620.0" cy="360.0" r="4.0" stroke="#0000b2" stroke-width="4.0" fill="#0000b2" />
<circle cx="600.0" cy="620.0" r="4.0" stroke="#0000b2" stroke-width="4.0" fill="#0000b2" />
<circle cx="600.0" cy="560.0" r="4.0" stroke="#0000b2" stroke-width="4.0" fill="#0000b2" />
<circle cx="620.0" cy="440.0" r="4.0" stroke="#0000b2" stroke-width="4.0" fill="#0000b2" />
</g>
<g>
<path d="M 821,376 L 859,385 L 859,455 L 821,464 Z" stroke="#000000" stroke-width="4.0" fill="none"/>
<text text-anchor="start" x="823.0" y="395.5" fill="#808080" style="font-size:18px">0</text>
<circle cx="840.0" cy="460.0" r="2.0" stroke="#0000b2" stroke-width="4.0" fill="#0000b2" />
<circle cx="820.0" cy="380.0" r="2.0" stroke="#0000b2" stroke-width="4.0" fill="#0000b2" />
<circle cx="820.0" cy="400.0" r="2.0" stroke="#0000b2" stroke-width="4.0" fill="#0000b2" />
<circle cx="820.0" cy="420.0" r="2.0" stroke="#0000b2" stroke-width="4.0" fill="#0000b2" />
<circle cx="820.0" cy="440.0" r="2.0" stroke="#0000b2" stroke-width="4.0" fill="#0000b2" />
<circle cx="860.0" cy="420.0" r="2.0" stroke="#b20000" stroke-width="4.0" fill="#b20000" />
</g>
<g>
<path d="M 710,410 L 661,410 L 661,350 L 710,350 C 720,350 740,360 739,380 C 739,400 720,410 710,410 Z" stroke="#000000" stroke-width="4.0" fill="none"/>
<circle cx="660.0" cy="360.0" r="2.0" stroke="#0000b2" stroke-width="4.0" fill="#0000b2" />
<circle cx="660.0" cy="400.0" r="2.0" stroke="#0000b2" stroke-width="4.0" fill="#0000b2" />
<circle cx="740.0" cy="380.0" r="2.0" stroke="#b20000" stroke-width="4.0" fill="#b20000" />
</g>
<g>
<path d="M 690,490 L 660,490 C 670,474 670,446 660,430 L 680,430 C 710,430 730,440 740,460 C 730,480 710,490 690,490 Z" stroke="#000000" stroke-width="4.0" fill="none"/>
<circle cx="660.0" cy="440.0" r="2.0" stroke="#0000b2" stroke-width="4.0" fill="#0000b2" />
<circle cx="660.0" cy="480.0" r="2.0" stroke="#0000b2" stroke-width="4.0" fill="#0000b2" />
<circle cx="740.0" cy="460.0" r="2.0" stroke="#b20000" stroke-width="4.0" fill="#b20000" />
</g>
<g>
<path d="M 690,570 L 670,570 C 680,554 680,526 670,510 L 690,510 C 710,510 730,520 740,540 C 730,560 710,570 690,570 Z" stroke="#000000" stroke-width="4.0" fill="none"/>
<path d="M 660,570 C 670,560 670,520 660,510" stroke="#000000" stroke-width="4.0" fill="none"/>
<circle cx="660.0" cy="520.0" r="2.0" stroke="#0000b2" stroke-width="4.0" fill="#0000b2" />
<circle cx="660.0" cy="560.0" r="2.0" stroke="#0000b2" stroke-width="4.0" fill="#0000b2" />
<circle cx="740.0" cy="540.0" r="2.0" stroke="#b20000" stroke-width="4.0" fill="#b20000" />
</g>
<g>
<circle cx="936.0" cy="420.0" r="9.0" stroke="#000000" stroke-width="4.0" fill="none" />
<circle cx="936.0" cy="420.0" r="15.0" stroke="#000000" stroke-width="4.0" fill="none" />
<text text-anchor="start" x="965.0" y="429.0" fill="#000000" style="font-size:24px"><tspan style="font-style:italic;">R</tspan></text>
<circle cx="920.0" cy="420.0" r="2.0" stroke="#0000b2" stroke-width="4.0" fill="#0000b2" />
</g>
<g>
<path d="M 769,645 L 799,645 L 799,675 L 769,675 Z" stroke="#000000" stroke-width="4.0" fill="none"/>
<circle cx="784.0" cy="660.0" r="9.0" stroke="#000000" stroke-width="4.0" fill="none" />
<text text-anchor="end" x="755.0" y="669.0" fill="#000000" style="font-size:24px"><tspan style="font-style:italic;">logSel</tspan></text>
<circle cx="800.0" cy="660.0" r="2.0" stroke="#b20000" stroke-width="4.0" fill="#b20000" />
</g>
<g>
<path d="M 449,225 L 479,225 L 479,255 L 449,255 Z" stroke="#000000" stroke-width="4.0" fill="none"/>
<circle cx="464.0" cy="240.0" r="9.0" stroke="#000000" stroke-width="4.0" fill="none" />
<text text-anchor="end" x="435.0" y="249.0" fill="#000000" style="font-size:24px"><tspan style="font-style:italic;">A</tspan></text>
<circle cx="480.0" cy="240.0" r="2.0" stroke="#b20000" stroke-width="4.0" fill="#b20000" />
</g>
<g>
<path d="M 449,605 L 479,605 L 479,635 L 449,635 Z" stroke="#000000" stroke-width="4.0" fill="none"/>
<circle cx="464.0" cy="620.0" r="9.0" stroke="#000000" stroke-width="4.0" fill="none" />
<text text-anchor="end" x="435.0" y="629.0" fill="#000000" style="font-size:24px"><tspan style="font-style:italic;">B</tspan></text>
<circle cx="480.0" cy="620.0" r="2.0" stroke="#b20000" stroke-width="4.0" fill="#b20000" />
</g>
</g>
</svg>